<?xml version="1.0" encoding="UTF-8"?>
<svg xmlns="http://www.w3.org/2000/svg" xmlns:xlink="http://www.w3.org/1999/xlink" version="1.1" viewBox="0 0 176.52 343.91">
  <!-- Generator: Adobe Illustrator 30.6.0, SVG Export Plug-In . SVG Version: 2.1.4 Build 109)  -->
  <defs>
    <style>
      .st0 {
        fill: #6e7072;
        opacity: .87;
      }

      .st0, .st1, .st2, .st3, .st4, .st5, .st6, .st7, .st8, .st9, .st10, .st11, .st12, .st13, .st14, .st15, .st16, .st17, .st18, .st19, .st20, .st21, .st22, .st23, .st24, .st25, .st26, .st27, .st28, .st29, .st30, .st31, .st32, .st33, .st34, .st35, .st36, .st37, .st38, .st39, .st40, .st41, .st42, .st43, .st44, .st45, .st46, .st47, .st48, .st49, .st50, .st51, .st52, .st53, .st54, .st55, .st56, .st57, .st58, .st59, .st60, .st61, .st62, .st63, .st64, .st65, .st66, .st67, .st68, .st69, .st70, .st71, .st72, .st73, .st74, .st75, .st76, .st77, .st78, .st79, .st80, .st81, .st82, .st83, .st84, .st85, .st86, .st87, .st88, .st89, .st90 {
        mix-blend-mode: multiply;
      }

      .st1 {
        fill: #87898c;
        opacity: .7;
      }

      .st2 {
        fill: #c2c4c6;
        opacity: .34;
      }

      .st91 {
        fill: url(#linear-gradient58);
      }

      .st91, .st92, .st93 {
        fill-rule: evenodd;
      }

      .st92 {
        fill: url(#linear-gradient54);
      }

      .st3 {
        fill: #6b6c6e;
        opacity: .89;
      }

      .st4 {
        fill: #bec0c2;
        opacity: .36;
      }

      .st5 {
        fill: #e0e1e2;
        opacity: .16;
      }

      .st6 {
        fill: #7c7d80;
        opacity: .78;
      }

      .st7 {
        fill: #5e5f61;
        opacity: .97;
      }

      .st8 {
        fill: #9fa1a4;
        opacity: .55;
      }

      .st9 {
        fill: #adafb2;
        opacity: .46;
      }

      .st10 {
        fill: #afb1b4;
        opacity: .45;
      }

      .st94 {
        fill: url(#linear-gradient2);
      }

      .st95 {
        fill: url(#linear-gradient1);
      }

      .st96 {
        fill: url(#linear-gradient9);
      }

      .st97 {
        fill: url(#linear-gradient3);
      }

      .st98 {
        fill: url(#linear-gradient6);
      }

      .st99 {
        fill: url(#linear-gradient8);
      }

      .st100 {
        fill: url(#linear-gradient7);
      }

      .st101 {
        fill: url(#linear-gradient5);
      }

      .st102 {
        fill: url(#linear-gradient4);
      }

      .st103 {
        fill: #010101;
      }

      .st11 {
        fill: #636567;
        opacity: .93;
      }

      .st12 {
        fill: #a1a3a6;
        opacity: .54;
      }

      .st13 {
        fill: #a8aaad;
        opacity: .49;
      }

      .st104 {
        fill: url(#linear-gradient31);
      }

      .st105 {
        fill: url(#linear-gradient30);
      }

      .st106 {
        fill: url(#linear-gradient38);
      }

      .st107 {
        fill: url(#linear-gradient32);
      }

      .st108 {
        fill: url(#linear-gradient61);
      }

      .st109 {
        fill: url(#linear-gradient60);
      }

      .st110 {
        fill: url(#linear-gradient62);
      }

      .st111 {
        fill: url(#linear-gradient65);
      }

      .st112 {
        fill: url(#linear-gradient67);
      }

      .st113 {
        fill: url(#linear-gradient64);
      }

      .st114 {
        fill: url(#linear-gradient63);
      }

      .st115 {
        fill: url(#linear-gradient66);
      }

      .st116 {
        fill: url(#linear-gradient39);
      }

      .st117 {
        fill: url(#linear-gradient34);
      }

      .st118 {
        fill: url(#linear-gradient37);
      }

      .st119 {
        fill: url(#linear-gradient35);
      }

      .st120 {
        fill: url(#linear-gradient33);
      }

      .st121 {
        fill: url(#linear-gradient36);
      }

      .st122 {
        fill: url(#linear-gradient40);
      }

      .st123 {
        fill: url(#linear-gradient41);
      }

      .st124 {
        fill: url(#linear-gradient42);
      }

      .st125 {
        fill: url(#linear-gradient46);
      }

      .st126 {
        fill: url(#linear-gradient48);
      }

      .st127 {
        fill: url(#linear-gradient43);
      }

      .st128 {
        fill: url(#linear-gradient44);
      }

      .st129 {
        fill: url(#linear-gradient47);
      }

      .st130 {
        fill: url(#linear-gradient45);
      }

      .st131 {
        fill: url(#linear-gradient49);
      }

      .st132 {
        fill: url(#linear-gradient50);
      }

      .st133 {
        fill: url(#linear-gradient51);
      }

      .st134 {
        fill: url(#linear-gradient52);
      }

      .st135 {
        fill: url(#linear-gradient59);
      }

      .st136 {
        fill: url(#linear-gradient53);
      }

      .st137 {
        fill: url(#linear-gradient56);
      }

      .st138 {
        fill: url(#linear-gradient57);
      }

      .st139 {
        fill: url(#linear-gradient55);
      }

      .st140 {
        fill: url(#linear-gradient28);
      }

      .st141 {
        fill: url(#linear-gradient29);
      }

      .st142 {
        fill: url(#linear-gradient18);
      }

      .st143 {
        fill: url(#linear-gradient13);
      }

      .st144 {
        fill: url(#linear-gradient12);
      }

      .st145 {
        fill: url(#linear-gradient15);
      }

      .st146 {
        fill: url(#linear-gradient16);
      }

      .st147 {
        fill: url(#linear-gradient11);
      }

      .st148 {
        fill: url(#linear-gradient10);
      }

      .st149 {
        fill: url(#linear-gradient17);
      }

      .st150 {
        fill: url(#linear-gradient14);
      }

      .st151 {
        fill: url(#linear-gradient19);
      }

      .st152 {
        fill: url(#linear-gradient23);
      }

      .st153 {
        fill: url(#linear-gradient22);
      }

      .st154 {
        fill: url(#linear-gradient24);
      }

      .st155 {
        fill: url(#linear-gradient25);
      }

      .st156 {
        fill: url(#linear-gradient21);
      }

      .st157 {
        fill: url(#linear-gradient20);
      }

      .st158 {
        fill: url(#linear-gradient27);
      }

      .st159 {
        fill: url(#linear-gradient26);
      }

      .st14 {
        fill: #58595b;
      }

      .st15 {
        fill: #96999b;
        opacity: .6;
      }

      .st16 {
        fill: #d8d9db;
        opacity: .21;
      }

      .st17 {
        fill: #c4c5c7;
        opacity: .33;
      }

      .st18 {
        fill: #c5c7c9;
        opacity: .32;
      }

      .st19 {
        fill: #898b8e;
        opacity: .69;
      }

      .st20 {
        fill: #a6a8ab;
        opacity: .51;
      }

      .st21 {
        fill: #b1b3b5;
        opacity: .44;
      }

      .st22 {
        fill: #b3b5b7;
        opacity: .43;
      }

      .st160 {
        fill: url(#linear-gradient);
      }

      .st23 {
        fill: #d6d8d9;
        opacity: .22;
      }

      .st24 {
        fill: #67686b;
        opacity: .91;
      }

      .st25 {
        fill: #fbfcfc;
        opacity: .01;
      }

      .st26 {
        fill: #787a7d;
        opacity: .8;
      }

      .st27 {
        fill: #dcddde;
        opacity: .19;
      }

      .st28 {
        fill: #8b8d8f;
        opacity: .68;
      }

      .st29 {
        fill: #8c8e91;
        opacity: .67;
      }

      .st30 {
        fill: #b5b7b9;
        opacity: .42;
      }

      .st31 {
        fill: #a4a7a9;
        opacity: .52;
      }

      .st32 {
        fill: #939598;
        opacity: .63;
      }

      .st33 {
        fill: #cfd0d2;
        opacity: .26;
      }

      .st161 {
        isolation: isolate;
      }

      .st34 {
        fill: #959799;
        opacity: .62;
      }

      .st35 {
        fill: #cdcfd0;
        opacity: .27;
      }

      .st36 {
        fill: #cbcdcf;
        opacity: .29;
      }

      .st37 {
        fill: #a3a5a7;
        opacity: .53;
      }

      .st38 {
        fill: #c7c9cb;
        opacity: .31;
      }

      .st39 {
        fill: #757779;
        opacity: .82;
      }

      .st40 {
        fill: #e3e4e5;
        opacity: .14;
      }

      .st41 {
        fill: #828487;
        opacity: .74;
      }

      .st42 {
        fill: #5a5b5d;
        opacity: .99;
      }

      .st43 {
        fill: #f9f9f9;
        opacity: .02;
      }

      .st44 {
        fill: #dadbdd;
        opacity: .2;
      }

      .st45 {
        fill: #7f8183;
        opacity: .76;
      }

      .st46 {
        fill: #acaeb0;
        opacity: .47;
      }

      .st47 {
        fill: #e1e2e4;
        opacity: .15;
      }

      .st48 {
        fill: #9c9ea0;
        opacity: .57;
      }

      .st49 {
        fill: #707174;
        opacity: .86;
      }

      .st162, .st93 {
        fill: #001522;
      }

      .st50 {
        fill: #bcbec0;
        opacity: .37;
      }

      .st51 {
        fill: #e7e8e9;
        opacity: .12;
      }

      .st163 {
        fill: #283778;
      }

      .st52 {
        fill: #727376;
        opacity: .85;
      }

      .st164 {
        fill: #fff;
        opacity: 0;
      }

      .st53 {
        fill: #c9cbcd;
        opacity: .3;
      }

      .st54 {
        fill: #f2f3f3;
        opacity: .05;
      }

      .st55 {
        fill: #5c5d5f;
        opacity: .98;
      }

      .st56 {
        fill: #dedfe0;
        opacity: .18;
      }

      .st57 {
        fill: #babcbe;
        opacity: .38;
      }

      .st58 {
        fill: #9d9fa2;
        opacity: .56;
      }

      .st59 {
        fill: #818385;
        opacity: .75;
      }

      .st60 {
        fill: #b8babd;
        opacity: .4;
      }

      .st61 {
        fill: #909294;
        opacity: .65;
      }

      .st62 {
        fill: #ededee;
        opacity: .09;
      }

      .st63 {
        fill: #7a7c7e;
        opacity: .79;
      }

      .st64 {
        fill: #919396;
        opacity: .64;
      }

      .st65 {
        fill: #8e9093;
        opacity: .66;
      }

      .st66 {
        fill: #737577;
        opacity: .84;
      }

      .st67 {
        fill: #b7b9bb;
        opacity: .41;
      }

      .st68 {
        fill: #e5e6e7;
        opacity: .13;
      }

      .st69 {
        fill: #f0f1f2;
        opacity: .07;
      }

      .st70 {
        fill: #989a9d;
        opacity: .59;
      }

      .st71 {
        fill: #d3d4d6;
        opacity: .24;
      }

      .st72 {
        fill: #efeff0;
        opacity: .08;
      }

      .st73 {
        fill: #d1d2d4;
        opacity: .25;
      }

      .st74 {
        fill: #7d7f82;
        opacity: .77;
      }

      .st75 {
        fill: #9a9c9f;
        opacity: .58;
      }

      .st76 {
        fill: #77787b;
        opacity: .81;
      }

      .st77 {
        fill: #ebecec;
        opacity: .1;
      }

      .st78 {
        fill: #656669;
        opacity: .92;
      }

      .st79 {
        fill: #d4d6d7;
        opacity: .23;
      }

      .st80 {
        fill: #606163;
        opacity: .96;
      }

      .st81 {
        fill: #c0c2c4;
        opacity: .35;
      }

      .st82 {
        fill: #696a6d;
        opacity: .9;
      }

      .st83 {
        fill: #e9eaeb;
        opacity: .11;
      }

      .st84 {
        fill: #f6f7f7;
        opacity: .03;
      }

      .st85 {
        fill: #6c6e70;
        opacity: .88;
      }

      .st86 {
        fill: #86888a;
        opacity: .71;
      }

      .st87 {
        fill: #626365;
        opacity: .95;
      }

      .st88 {
        fill: #848688;
        opacity: .73;
      }

      .st89 {
        fill: #aaacae;
        opacity: .48;
      }

      .st90 {
        fill: #f4f5f5;
        opacity: .04;
      }
    </style>
    <linearGradient id="linear-gradient" x1="173.69" y1="309.38" x2="3.19" y2="138.88" gradientUnits="userSpaceOnUse">
      <stop offset="0" stop-color="#bf9132"/>
      <stop offset=".08" stop-color="#dfba5f"/>
      <stop offset=".14" stop-color="#f5d77f"/>
      <stop offset=".26" stop-color="#faf8cd"/>
      <stop offset=".36" stop-color="#f5d77f"/>
      <stop offset=".49" stop-color="#bf9132"/>
      <stop offset=".56" stop-color="#dfba5f"/>
      <stop offset=".61" stop-color="#f5d77f"/>
      <stop offset=".74" stop-color="#faf8cd"/>
      <stop offset=".84" stop-color="#f5d77f"/>
      <stop offset="1" stop-color="#bf9132"/>
    </linearGradient>
    <linearGradient id="linear-gradient1" x1="5.29" y1="171.23" x2="203.98" y2="-27.46" xlink:href="#linear-gradient"/>
    <linearGradient id="linear-gradient2" x1="0" y1="88.26" x2="176.52" y2="88.26" gradientUnits="userSpaceOnUse">
      <stop offset="0" stop-color="#f5d77f"/>
      <stop offset=".14" stop-color="#bf9132"/>
      <stop offset=".26" stop-color="#dfba5f"/>
      <stop offset=".35" stop-color="#f5d77f"/>
      <stop offset=".64" stop-color="#f5d77f"/>
      <stop offset=".83" stop-color="#bf9132"/>
      <stop offset=".93" stop-color="#dfba5f"/>
      <stop offset="1" stop-color="#f5d77f"/>
    </linearGradient>
    <linearGradient id="linear-gradient3" x1="43.98" y1="132.54" x2="132.54" y2="43.98" xlink:href="#linear-gradient"/>
    <linearGradient id="linear-gradient4" x1="23.98" y1="245.39" x2="162.9" y2="106.47" xlink:href="#linear-gradient"/>
    <linearGradient id="linear-gradient5" x1="56.01" y1="238.26" x2="31.11" y2="213.36" xlink:href="#linear-gradient"/>
    <linearGradient id="linear-gradient6" x1="21.65" y1="276.85" x2="155.53" y2="142.97" xlink:href="#linear-gradient"/>
    <linearGradient id="linear-gradient7" x1="77.56" y1="246.8" x2="51.78" y2="221.01" xlink:href="#linear-gradient"/>
    <linearGradient id="linear-gradient8" x1="21.67" y1="297.44" x2="154.34" y2="164.78" xlink:href="#linear-gradient"/>
    <linearGradient id="linear-gradient9" x1="101" y1="241.57" x2="77.53" y2="218.1" xlink:href="#linear-gradient"/>
    <linearGradient id="linear-gradient10" x1="17.38" y1="321.41" x2="156.3" y2="182.49" xlink:href="#linear-gradient"/>
    <linearGradient id="linear-gradient11" x1="125.43" y1="238.26" x2="100.53" y2="213.36" xlink:href="#linear-gradient"/>
    <linearGradient id="linear-gradient12" x1="-13.58" y1="378.57" x2="157.48" y2="207.51" xlink:href="#linear-gradient"/>
    <linearGradient id="linear-gradient13" x1="148.52" y1="243.05" x2="121.94" y2="216.47" xlink:href="#linear-gradient"/>
    <linearGradient id="linear-gradient14" x1="18.06" y1="309.19" x2="151.73" y2="175.52" xlink:href="#linear-gradient"/>
    <linearGradient id="linear-gradient15" x1="70.71" y1="266.39" x2="60.89" y2="256.57" xlink:href="#linear-gradient"/>
    <linearGradient id="linear-gradient16" x1="29.17" y1="307.09" x2="138.79" y2="197.48" xlink:href="#linear-gradient"/>
    <linearGradient id="linear-gradient17" x1="83.99" y1="264.62" x2="71.61" y2="252.24" xlink:href="#linear-gradient"/>
    <linearGradient id="linear-gradient18" x1="16.73" y1="334.53" x2="150.4" y2="200.86" xlink:href="#linear-gradient"/>
    <linearGradient id="linear-gradient19" x1="94.72" y1="266.39" x2="84.9" y2="256.57" xlink:href="#linear-gradient"/>
    <linearGradient id="linear-gradient20" x1="19.26" y1="341.34" x2="147.88" y2="212.72" xlink:href="#linear-gradient"/>
    <linearGradient id="linear-gradient21" x1="105.6" y1="266.06" x2="94.56" y2="255.02" xlink:href="#linear-gradient"/>
    <linearGradient id="linear-gradient22" x1="13.19" y1="356.85" x2="149.67" y2="220.36" xlink:href="#linear-gradient"/>
    <linearGradient id="linear-gradient23" x1="114.96" y1="264.8" x2="105.19" y2="255.03" xlink:href="#linear-gradient"/>
    <linearGradient id="linear-gradient24" x1="24.8" y1="229.68" x2="154.77" y2="99.71" gradientUnits="userSpaceOnUse">
      <stop offset="0" stop-color="#af762a"/>
      <stop offset=".08" stop-color="#deb763"/>
      <stop offset=".13" stop-color="#f5d77f"/>
      <stop offset=".26" stop-color="#faf8cd"/>
      <stop offset=".39" stop-color="#f5d77f"/>
      <stop offset=".5" stop-color="#c19232"/>
      <stop offset=".58" stop-color="#e0bb5f"/>
      <stop offset=".65" stop-color="#f5d77f"/>
      <stop offset=".78" stop-color="#faf8cd"/>
      <stop offset=".91" stop-color="#f5d77f"/>
      <stop offset="1" stop-color="#af762a"/>
    </linearGradient>
    <linearGradient id="linear-gradient25" x1="59.54" y1="203.85" x2="50.62" y2="194.93" gradientUnits="userSpaceOnUse">
      <stop offset="0" stop-color="#af762a"/>
      <stop offset=".08" stop-color="#deb763"/>
      <stop offset=".13" stop-color="#f5d77f"/>
      <stop offset=".26" stop-color="#faf8cd"/>
      <stop offset=".39" stop-color="#f5d77f"/>
      <stop offset=".52" stop-color="#c19232"/>
      <stop offset=".59" stop-color="#e0bb5f"/>
      <stop offset=".65" stop-color="#f5d77f"/>
      <stop offset=".78" stop-color="#faf8cd"/>
      <stop offset=".91" stop-color="#f5d77f"/>
      <stop offset="1" stop-color="#af762a"/>
    </linearGradient>
    <linearGradient id="linear-gradient26" x1="22.13" y1="241.81" x2="160.48" y2="103.46" xlink:href="#linear-gradient24"/>
    <linearGradient id="linear-gradient27" x1="70.44" y1="203.36" x2="60.53" y2="193.45" xlink:href="#linear-gradient25"/>
    <linearGradient id="linear-gradient28" x1="17.06" y1="255.44" x2="161.48" y2="111.03" xlink:href="#linear-gradient24"/>
    <linearGradient id="linear-gradient29" x1="78.02" y1="202.47" x2="70.03" y2="194.48" xlink:href="#linear-gradient25"/>
    <linearGradient id="linear-gradient30" x1="8.13" y1="276.77" x2="171.88" y2="113.02" xlink:href="#linear-gradient24"/>
    <linearGradient id="linear-gradient31" x1="90.59" y1="204.43" x2="80.47" y2="194.3" xlink:href="#linear-gradient25"/>
    <linearGradient id="linear-gradient32" x1="23.99" y1="270.68" x2="152.61" y2="142.06" xlink:href="#linear-gradient24"/>
    <linearGradient id="linear-gradient33" x1="100.22" y1="205.52" x2="89.18" y2="194.48" xlink:href="#linear-gradient25"/>
    <linearGradient id="linear-gradient34" x1="-75.68" y1="377.96" x2="217.13" y2="85.15" xlink:href="#linear-gradient24"/>
    <linearGradient id="linear-gradient35" x1="106.91" y1="203.36" x2="98.92" y2="195.37" xlink:href="#linear-gradient25"/>
    <linearGradient id="linear-gradient36" x1="25.98" y1="284.07" x2="152.16" y2="157.89" xlink:href="#linear-gradient24"/>
    <linearGradient id="linear-gradient37" x1="115.21" y1="203.9" x2="106.15" y2="194.84" xlink:href="#linear-gradient25"/>
    <linearGradient id="linear-gradient38" x1="23.58" y1="297.26" x2="152.2" y2="168.64" xlink:href="#linear-gradient24"/>
    <linearGradient id="linear-gradient39" x1="126.4" y1="205.52" x2="115.36" y2="194.48" xlink:href="#linear-gradient25"/>
    <linearGradient id="linear-gradient40" x1="36.82" y1="353" x2="124.51" y2="265.31" xlink:href="#linear-gradient"/>
    <linearGradient id="linear-gradient41" x1="111.64" y1="292.99" x2="96.83" y2="278.18" xlink:href="#linear-gradient"/>
    <linearGradient id="linear-gradient42" x1="26.83" y1="330.16" x2="114.52" y2="242.48" xlink:href="#linear-gradient"/>
    <linearGradient id="linear-gradient43" x1="78.81" y1="292.99" x2="64.01" y2="278.18" xlink:href="#linear-gradient"/>
    <linearGradient id="linear-gradient44" x1="64.34" y1="122.33" x2="136.78" y2="49.89" xlink:href="#linear-gradient"/>
    <linearGradient id="linear-gradient45" x1="70.8" y1="80.99" x2="105.68" y2="115.87" xlink:href="#linear-gradient"/>
    <linearGradient id="linear-gradient46" x1="61.97" y1="119.96" x2="134.41" y2="47.52" xlink:href="#linear-gradient"/>
    <linearGradient id="linear-gradient47" x1="73.34" y1="78.78" x2="103.14" y2="108.59" xlink:href="#linear-gradient"/>
    <linearGradient id="linear-gradient48" x1="63.12" y1="121.11" x2="135.56" y2="48.67" xlink:href="#linear-gradient"/>
    <linearGradient id="linear-gradient49" x1="102.07" y1="64.32" x2="119.91" y2="82.16" xlink:href="#linear-gradient"/>
    <linearGradient id="linear-gradient50" x1="56.14" y1="114.13" x2="128.58" y2="41.69" xlink:href="#linear-gradient"/>
    <linearGradient id="linear-gradient51" x1="88.27" y1="63.99" x2="106.27" y2="81.99" xlink:href="#linear-gradient"/>
    <linearGradient id="linear-gradient52" x1="41.35" y1="99.33" x2="113.79" y2="26.89" xlink:href="#linear-gradient"/>
    <linearGradient id="linear-gradient53" x1="73.34" y1="37.54" x2="103.14" y2="67.34" xlink:href="#linear-gradient"/>
    <linearGradient id="linear-gradient54" x1="39.03" y1="97.02" x2="111.47" y2="24.58" xlink:href="#linear-gradient"/>
    <linearGradient id="linear-gradient55" x1="70.97" y1="30.56" x2="105.52" y2="65.11" xlink:href="#linear-gradient"/>
    <linearGradient id="linear-gradient56" x1="41.27" y1="107.58" x2="112.11" y2="6.29" xlink:href="#linear-gradient"/>
    <linearGradient id="linear-gradient57" x1="56.8" y1="62.46" x2="75.83" y2="81.49" xlink:href="#linear-gradient"/>
    <linearGradient id="linear-gradient58" x1="48.32" y1="106.3" x2="120.76" y2="33.86" xlink:href="#linear-gradient"/>
    <linearGradient id="linear-gradient59" x1="69.9" y1="62.52" x2="92.12" y2="84.74" xlink:href="#linear-gradient"/>
    <linearGradient id="linear-gradient60" x1="47.48" y1="135.39" x2="125.81" y2="54.6" gradientUnits="userSpaceOnUse">
      <stop offset="0" stop-color="#be9130"/>
      <stop offset=".08" stop-color="#deba5f"/>
      <stop offset=".14" stop-color="#f4d67f"/>
      <stop offset=".24" stop-color="#faf8cf"/>
      <stop offset=".37" stop-color="#f4d67f"/>
      <stop offset=".49" stop-color="#be9130"/>
      <stop offset=".59" stop-color="#deba5f"/>
      <stop offset=".66" stop-color="#f4d67f"/>
      <stop offset=".79" stop-color="#faf8cf"/>
      <stop offset=".94" stop-color="#f4d67f"/>
    </linearGradient>
    <linearGradient id="linear-gradient61" x1="55.12" y1="117.48" x2="70.41" y2="117.48" gradientUnits="userSpaceOnUse">
      <stop offset="0" stop-color="#be9130"/>
      <stop offset=".08" stop-color="#deba5f"/>
      <stop offset=".14" stop-color="#f4d67f"/>
      <stop offset=".26" stop-color="#faf8cf"/>
      <stop offset=".36" stop-color="#f4d67f"/>
      <stop offset=".49" stop-color="#be9130"/>
      <stop offset=".56" stop-color="#deba5f"/>
      <stop offset=".61" stop-color="#f4d67f"/>
      <stop offset=".74" stop-color="#faf8cf"/>
      <stop offset=".84" stop-color="#f4d67f"/>
      <stop offset="1" stop-color="#be9130"/>
    </linearGradient>
    <linearGradient id="linear-gradient62" x1="67.34" y1="142.94" x2="118.65" y2="41.87" gradientUnits="userSpaceOnUse">
      <stop offset="0" stop-color="#be9130"/>
      <stop offset=".08" stop-color="#deba5f"/>
      <stop offset=".14" stop-color="#f4d67f"/>
      <stop offset=".24" stop-color="#faf8cf"/>
      <stop offset=".29" stop-color="#f4d67f"/>
      <stop offset=".42" stop-color="#be9130"/>
      <stop offset=".56" stop-color="#deba5f"/>
      <stop offset=".66" stop-color="#f4d67f"/>
      <stop offset=".79" stop-color="#faf8cf"/>
      <stop offset=".94" stop-color="#f4d67f"/>
    </linearGradient>
    <linearGradient id="linear-gradient63" x1="72.41" y1="117.74" x2="87.85" y2="117.74" xlink:href="#linear-gradient61"/>
    <linearGradient id="linear-gradient64" x1="90.22" y1="136.81" x2="133.87" y2="38.64" gradientUnits="userSpaceOnUse">
      <stop offset="0" stop-color="#be9130"/>
      <stop offset=".09" stop-color="#deba5f"/>
      <stop offset=".15" stop-color="#f4d67f"/>
      <stop offset=".23" stop-color="#f4d67f"/>
      <stop offset=".45" stop-color="#be9130"/>
      <stop offset=".55" stop-color="#d0b061"/>
      <stop offset=".72" stop-color="#eee3af"/>
      <stop offset=".79" stop-color="#faf8cf"/>
      <stop offset=".94" stop-color="#f4d67f"/>
    </linearGradient>
    <linearGradient id="linear-gradient65" x1="89.9" x2="105.19" xlink:href="#linear-gradient61"/>
    <linearGradient id="linear-gradient66" x1="93.41" y1="153.87" x2="138.35" y2="73.49" gradientUnits="userSpaceOnUse">
      <stop offset="0" stop-color="#be9130"/>
      <stop offset=".08" stop-color="#deba5f"/>
      <stop offset=".14" stop-color="#f4d67f"/>
      <stop offset=".24" stop-color="#faf8cf"/>
      <stop offset=".33" stop-color="#f4d67f"/>
      <stop offset=".44" stop-color="#be9130"/>
      <stop offset=".58" stop-color="#deba5f"/>
      <stop offset=".69" stop-color="#f4d67f"/>
      <stop offset=".79" stop-color="#faf8cf"/>
      <stop offset=".94" stop-color="#f4d67f"/>
    </linearGradient>
    <linearGradient id="linear-gradient67" x1="106.97" y1="117.99" x2="122.01" y2="117.99" xlink:href="#linear-gradient61"/>
  </defs>
  <g class="st161">
    <g id="Layer_1">
      <g>
        <g>
          <path class="st163" d="M22.65,123.75v143.22s.98,51.87-15.33,73.73c0,0,45.02-6.2,80.9-34.25,0,0,50.56,33.93,50.58,33.93,16.3-21.86,15.32-73.71,15.32-73.71V89.06L22.65,123.75Z"/>
          <path class="st160" d="M1.86,343.91l3.5-4.68c15.62-20.93,14.86-71.71,14.85-72.22V121.86s136.36-35.97,136.36-35.97v180.77c.04,2.1.8,52.89-15.81,75.17l-1.39,1.86-1.93-1.29s-.02-.01-49.12-32.96c-18.47,14.06-39.07,22.41-53.26,26.96-15.76,5.06-26.94,6.64-27.41,6.7l-5.79.8ZM25.1,125.63v141.33c.04,1.96.7,46.3-12.69,70.33,12.94-2.62,46.6-11.12,74.31-32.78l1.4-1.09,1.47.99s39.2,26.3,48.58,32.59c14.25-21.96,13.52-69.8,13.51-70.29V92.24S25.1,125.63,25.1,125.63Z"/>
        </g>
        <g>
          <circle class="st164" cx="88.32" cy="106.86" r="79.22"/>
          <circle class="st25" cx="88.31" cy="106.74" r="79.22"/>
          <circle class="st43" cx="88.3" cy="106.62" r="79.22"/>
          <circle class="st84" cx="88.3" cy="106.51" r="79.22"/>
          <circle class="st90" cx="88.29" cy="106.39" r="79.22"/>
          <circle class="st54" cx="88.28" cy="106.28" r="79.22"/>
          <circle class="st69" cx="88.28" cy="106.16" r="79.22"/>
          <circle class="st72" cx="88.27" cy="106.04" r="79.22"/>
          <circle class="st62" cx="88.26" cy="105.93" r="79.22"/>
          <circle class="st77" cx="88.26" cy="105.81" r="79.22"/>
          <circle class="st83" cx="88.25" cy="105.69" r="79.22"/>
          <circle class="st51" cx="88.24" cy="105.58" r="79.22"/>
          <circle class="st68" cx="88.24" cy="105.46" r="79.22"/>
          <circle class="st40" cx="88.23" cy="105.35" r="79.22"/>
          <circle class="st47" cx="88.22" cy="105.23" r="79.22"/>
          <circle class="st5" cx="88.22" cy="105.11" r="79.22"/>
          <circle class="st56" cx="88.21" cy="105" r="79.22"/>
          <circle class="st27" cx="88.21" cy="104.88" r="79.22"/>
          <circle class="st44" cx="88.2" cy="104.77" r="79.22"/>
          <circle class="st16" cx="88.19" cy="104.65" r="79.22"/>
          <circle class="st23" cx="88.19" cy="104.53" r="79.22"/>
          <circle class="st79" cx="88.18" cy="104.42" r="79.22"/>
          <circle class="st71" cx="88.17" cy="104.3" r="79.22"/>
          <circle class="st73" cx="88.17" cy="104.19" r="79.22"/>
          <circle class="st33" cx="88.16" cy="104.07" r="79.22"/>
          <circle class="st35" cx="88.15" cy="103.95" r="79.22"/>
          <circle class="st36" cx="88.15" cy="103.84" r="79.22"/>
          <circle class="st53" cx="88.14" cy="103.72" r="79.22"/>
          <circle class="st38" cx="88.13" cy="103.6" r="79.22"/>
          <circle class="st18" cx="88.13" cy="103.49" r="79.22"/>
          <circle class="st17" cx="88.12" cy="103.37" r="79.22"/>
          <circle class="st2" cx="88.11" cy="103.26" r="79.22"/>
          <circle class="st81" cx="88.11" cy="103.14" r="79.22"/>
          <circle class="st4" cx="88.1" cy="103.02" r="79.22"/>
          <circle class="st50" cx="88.09" cy="102.91" r="79.22"/>
          <circle class="st57" cx="88.09" cy="102.79" r="79.22"/>
          <circle class="st60" cx="88.08" cy="102.68" r="79.22"/>
          <circle class="st67" cx="88.07" cy="102.56" r="79.22"/>
          <circle class="st30" cx="88.07" cy="102.44" r="79.22"/>
          <circle class="st22" cx="88.06" cy="102.33" r="79.22"/>
          <circle class="st21" cx="88.05" cy="102.21" r="79.22"/>
          <circle class="st10" cx="88.05" cy="102.1" r="79.22"/>
          <circle class="st9" cx="88.04" cy="101.98" r="79.22"/>
          <circle class="st46" cx="88.03" cy="101.86" r="79.22"/>
          <circle class="st89" cx="88.03" cy="101.75" r="79.22"/>
          <circle class="st13" cx="88.02" cy="101.63" r="79.22"/>
          <circle class="st20" cx="88.01" cy="101.51" r="79.22"/>
          <circle class="st31" cx="88.01" cy="101.4" r="79.22"/>
          <circle class="st37" cx="88" cy="101.28" r="79.22"/>
          <circle class="st12" cx="87.99" cy="101.17" r="79.22"/>
          <circle class="st8" cx="87.99" cy="101.05" r="79.22"/>
          <circle class="st58" cx="87.98" cy="100.93" r="79.22"/>
          <circle class="st48" cx="87.97" cy="100.82" r="79.22"/>
          <circle class="st75" cx="87.97" cy="100.7" r="79.22"/>
          <circle class="st70" cx="87.96" cy="100.59" r="79.22"/>
          <circle class="st15" cx="87.95" cy="100.47" r="79.22"/>
          <circle class="st34" cx="87.95" cy="100.35" r="79.22"/>
          <circle class="st32" cx="87.94" cy="100.24" r="79.22"/>
          <circle class="st64" cx="87.93" cy="100.12" r="79.22"/>
          <circle class="st61" cx="87.93" cy="100.01" r="79.22"/>
          <circle class="st65" cx="87.92" cy="99.89" r="79.22"/>
          <circle class="st29" cx="87.92" cy="99.77" r="79.22"/>
          <circle class="st28" cx="87.91" cy="99.66" r="79.22"/>
          <circle class="st19" cx="87.9" cy="99.54" r="79.22"/>
          <circle class="st1" cx="87.9" cy="99.42" r="79.22"/>
          <circle class="st86" cx="87.89" cy="99.31" r="79.22"/>
          <circle class="st88" cx="87.88" cy="99.19" r="79.22"/>
          <circle class="st41" cx="87.88" cy="99.08" r="79.22"/>
          <circle class="st59" cx="87.87" cy="98.96" r="79.22"/>
          <circle class="st45" cx="87.86" cy="98.84" r="79.22"/>
          <circle class="st74" cx="87.86" cy="98.73" r="79.22"/>
          <circle class="st6" cx="87.85" cy="98.61" r="79.22"/>
          <circle class="st63" cx="87.84" cy="98.5" r="79.22"/>
          <circle class="st26" cx="87.84" cy="98.38" r="79.22"/>
          <circle class="st76" cx="87.83" cy="98.26" r="79.22"/>
          <circle class="st39" cx="87.82" cy="98.15" r="79.22"/>
          <circle class="st66" cx="87.82" cy="98.03" r="79.22"/>
          <circle class="st52" cx="87.81" cy="97.92" r="79.22"/>
          <circle class="st49" cx="87.8" cy="97.8" r="79.22"/>
          <circle class="st0" cx="87.8" cy="97.68" r="79.22"/>
          <circle class="st85" cx="87.79" cy="97.57" r="79.22"/>
          <circle class="st3" cx="87.78" cy="97.45" r="79.22"/>
          <circle class="st82" cx="87.78" cy="97.33" r="79.22"/>
          <circle class="st24" cx="87.77" cy="97.22" r="79.22"/>
          <circle class="st78" cx="87.76" cy="97.1" r="79.22"/>
          <circle class="st11" cx="87.76" cy="96.99" r="79.22"/>
          <circle class="st87" cx="87.75" cy="96.87" r="79.22"/>
          <circle class="st80" cx="87.74" cy="96.75" r="79.22"/>
          <circle class="st7" cx="87.74" cy="96.64" r="79.22"/>
          <circle class="st55" cx="87.73" cy="96.52" r="79.22"/>
          <circle class="st42" cx="87.72" cy="96.41" r="79.22"/>
          <circle class="st14" cx="87.72" cy="96.29" r="79.22"/>
        </g>
        <g>
          <circle class="st95" cx="88.26" cy="88.26" r="87.03"/>
          <path class="st94" d="M88.26,1.6c47.86,0,86.67,38.8,86.67,86.67s-38.8,86.67-86.67,86.67S1.6,136.12,1.6,88.26,40.4,1.6,88.26,1.6M88.26,0c-23.58,0-45.74,9.18-62.41,25.85C9.18,42.52,0,64.69,0,88.26s9.18,45.74,25.85,62.41c16.67,16.67,38.83,25.85,62.41,25.85s45.74-9.18,62.41-25.85c16.67-16.67,25.85-38.83,25.85-62.41s-9.18-45.74-25.85-62.41C134,9.18,111.84,0,88.26,0h0Z"/>
        </g>
        <g>
          <circle class="st163" cx="88.26" cy="88.26" r="61.42"/>
          <path class="st97" d="M88.26,26.84c33.92,0,61.42,27.5,61.42,61.42s-27.5,61.42-61.42,61.42-61.42-27.5-61.42-61.42,27.5-61.42,61.42-61.42M88.26,25.61c-34.54,0-62.65,28.1-62.65,62.65s28.1,62.65,62.65,62.65,62.65-28.1,62.65-62.65-28.1-62.65-62.65-62.65h0Z"/>
        </g>
        <g>
          <g>
            <path class="st163" d="M50.02,160.56l-3.04-1.57,6.38-12.36,3.04,1.57c2.84,1.47,4.5,2.88,3.1,5.6-1.03,1.99-2.54,1.89-3.73,1.59,1.01.81,2.33,1.98,1.15,4.26-1.62,3.14-3.78,2.52-6.9.91ZM53.02,155.18l-.74-.38-1.89,3.65.69.36c1.5.77,2.54,1.18,3.42-.52.82-1.59.11-2.29-1.48-3.11ZM55.55,150.07l-.65-.34-1.7,3.3.74.38c1.34.69,2.19.86,3.02-.74.7-1.36-.03-1.89-1.41-2.6Z"/>
            <path class="st163" d="M64.25,166.47l.19-3.27c.08-1.31-.13-2.32-.35-2.8l-1.11-.26-1.77,5.32-2.64-.88,4.39-13.2,3.62,1.2c2.83.94,4.64,2.28,3.62,5.35-.7,2.09-1.96,2.76-3.58,2.79.4.49.59,1.49.6,2.52l.02,4.22-3-1ZM65.76,154.64l-.85-.28-1.31,3.94c1.85.43,3.31.76,3.95-1.18.42-1.26-.11-1.92-1.79-2.48Z"/>
            <path class="st163" d="M74.96,169.16c-3.45-.57-4.21-2.28-3.74-5.17l1.56-9.49,2.74.45-1.55,9.41c-.28,1.69.07,2.39,1.34,2.6,1.18.19,1.82-.3,2.11-2.03l1.55-9.41,2.74.45-1.56,9.49c-.46,2.8-1.89,4.24-5.2,3.69Z"/>
            <path class="st163" d="M86.16,170.23c-1.77-.04-3.29-.56-3.29-.56l.05-2.38s1.94.64,2.89.66c1.13.02,2.15-.29,2.18-1.65.03-1.23-.68-1.62-1.62-2.18l-1.24-.72c-1.16-.68-2.21-1.71-2.17-3.68.06-3.04,2.58-3.8,4.41-3.77,1.95.04,3.01.6,3.01.6l-.05,2.26s-1.48-.61-2.81-.63c-.99-.02-1.79.32-1.82,1.43-.02.97.61,1.38,1.41,1.86l1.18.68c1.26.72,2.53,1.76,2.48,4.1-.07,3.4-2.62,4.02-4.61,3.98Z"/>
            <path class="st163" d="M96.72,169.84c-1.76.19-3.33-.14-3.33-.14l-.26-2.37s2,.38,2.95.28c1.13-.12,2.1-.57,1.95-1.91-.13-1.22-.88-1.52-1.89-1.95l-1.32-.56c-1.24-.53-2.41-1.42-2.62-3.37-.33-3.02,2.07-4.1,3.89-4.3,1.94-.21,3.06.21,3.06.21l.24,2.25s-1.54-.41-2.87-.27c-.99.11-1.74.55-1.62,1.65.1.97.78,1.29,1.64,1.66l1.26.52c1.34.55,2.73,1.42,2.98,3.75.37,3.38-2.09,4.32-4.07,4.54Z"/>
            <path class="st163" d="M109.11,155.55l-4.73,1.14.7,2.92,4.06-.98.5,2.09-4.06.98.94,3.92,4.83-1.16.55,2.3-7.53,1.81-3.25-13.52,7.63-1.83.36,2.34Z"/>
            <path class="st163" d="M121.27,163.3l-6.31,2.4-4.95-12.99,2.6-.99,4.11,10.79,3.95-1.51.6,2.3Z"/>
            <path class="st163" d="M126.88,160.7c-1.56.84-3.14,1.13-3.14,1.13l-1.13-2.1s2-.4,2.83-.85c1-.54,1.73-1.32,1.09-2.51-.59-1.08-1.39-1.08-2.49-1.1l-1.43-.02c-1.34-.02-2.77-.4-3.7-2.13-1.44-2.67.37-4.58,1.98-5.45,1.71-.93,2.91-.96,2.91-.96l1.08,1.99s-1.58.2-2.76.83c-.87.47-1.4,1.16-.87,2.14.46.86,1.21.9,2.14.92h1.36c1.45.02,3.07.3,4.18,2.36,1.61,2.99-.3,4.79-2.05,5.74Z"/>
          </g>
          <g>
            <path class="st163" d="M25.6,113.49l-13.04,4.82-.98-2.65,13.04-4.82.98,2.65Z"/>
            <path class="st163" d="M22.16,101.79l-4.84,3.93c-1.51,1.23-3.63,2.57-3.63,2.57,0,0,2.67-.96,4.38-1.36l5.01-1.16.63,2.71-13.55,3.13-.59-2.56,4.41-3.59c1.75-1.42,3.81-2.67,3.81-2.67,0,0-2.89.99-4.38,1.34l-4.72,1.09-.62-2.71,13.55-3.13.55,2.4Z"/>
            <path class="st163" d="M9.27,89.74l.22,3.05,11.49-.83.2,2.77-11.49.83.24,3.37-2.38.17-.68-9.51,2.4.15Z"/>
            <path class="st163" d="M9.84,79.03l-.33,4.86,2.99.2.28-4.16,2.14.14-.28,4.16,4.02.27.33-4.96,2.36.16-.52,7.73-13.87-.93.52-7.83,2.35.36Z"/>
            <path class="st163" d="M22.91,72.23l-3.27.16c-1.31.06-2.3.37-2.74.64l-.15,1.13,5.47,1.2-.6,2.72-13.58-2.98.82-3.72c.64-2.91,1.78-4.86,4.94-4.16,2.15.47,2.95,1.66,3.15,3.27.45-.45,1.42-.74,2.45-.87l4.19-.46-.68,3.09ZM10.98,71.97l-.19.87,4.06.89c.23-1.88.41-3.37-1.58-3.8-1.3-.29-1.9.31-2.28,2.04Z"/>
            <path class="st163" d="M26.64,61.27l-6.22.45c-1.94.14-4.45.03-4.45.03,0,0,2.74.74,4.36,1.39l4.77,1.92-1.04,2.58-12.9-5.19.98-2.43,5.67-.42c2.25-.16,4.65-.01,4.65-.01,0,0-2.94-.84-4.36-1.41l-4.5-1.81,1.04-2.58,12.9,5.19-.92,2.29Z"/>
            <path class="st163" d="M32.26,51.02l-2.6-.93-2.04,3.32,2,1.91-1.54,2.5-9.88-10.47,1.81-2.94,13.8,4.11-1.54,2.5ZM24.27,48.17c-1.59-.56-3.66-1.37-3.66-1.37,0,0,1.6,1.45,2.87,2.65l2.56,2.44,1.56-2.54-3.33-1.19Z"/>
            <path class="st163" d="M30.21,34.93l-1.94,2.37,8.91,7.3-1.76,2.15-8.91-7.3-2.14,2.61-1.84-1.51,6.04-7.38,1.64,1.76Z"/>
            <path class="st163" d="M40.31,41.21l-9.71-9.96,2.02-1.97,9.71,9.96-2.02,1.97Z"/>
            <path class="st163" d="M47.77,34.92c-1.71,1.3-4.22,2.66-8.28-2.68-4.07-5.34-1.95-7.51-.38-8.7,1.56-1.19,4.24-2.63,8.28,2.68,4.1,5.39,2.04,7.43.38,8.7ZM40.3,25.12c-1.11.84-1.18,2.05,1.39,5.43,2.61,3.43,3.94,3.5,4.87,2.78.96-.73,1.26-1.96-1.39-5.43-2.53-3.32-3.79-3.6-4.87-2.78Z"/>
            <path class="st163" d="M59.26,27.6l-5.02-3.7c-1.57-1.15-3.4-2.86-3.4-2.86,0,0,1.6,2.34,2.41,3.89l2.38,4.56-2.47,1.29-6.44-12.33,2.32-1.21,4.58,3.37c1.82,1.34,3.55,3.01,3.55,3.01,0,0-1.69-2.55-2.4-3.9l-2.24-4.3,2.47-1.29,6.44,12.33-2.18,1.14Z"/>
            <path class="st163" d="M70.18,23.46l-1.38-2.4-3.71,1.19.28,2.75-2.8.9-.71-14.38,3.29-1.06,7.82,12.09-2.8.9ZM65.95,16.1c-.85-1.46-1.9-3.42-1.9-3.42,0,0,.27,2.15.46,3.88l.36,3.52,2.84-.91-1.76-3.06Z"/>
            <path class="st163" d="M80.97,21.28l-6.66,1.14-2.35-13.71,2.74-.47,1.95,11.38,4.17-.72.15,2.37Z"/>
            <path class="st163" d="M97.24,9.79l-3.06-.15-.58,11.51-2.78-.14.58-11.51-3.37-.17.12-2.38,9.52.48-.44,2.37Z"/>
            <path class="st163" d="M103.52,22.58l-.07-2.76-3.83-.71-1.06,2.55-2.89-.54,6.21-12.99,3.4.63,1.13,14.36-2.89-.54ZM103.3,14.09c-.05-1.69-.04-3.91-.04-3.91,0,0-.78,2.02-1.44,3.63l-1.35,3.26,2.93.54-.09-3.53Z"/>
            <path class="st163" d="M110.29,24.74c-1.67-.58-2.95-1.55-2.95-1.55l.78-2.25s1.64,1.2,2.54,1.52c1.07.37,2.14.39,2.58-.89.4-1.16-.15-1.76-.87-2.58l-.95-1.07c-.89-1-1.57-2.31-.93-4.17,1-2.87,3.63-2.82,5.36-2.22,1.84.64,2.68,1.5,2.68,1.5l-.74,2.14s-1.22-1.03-2.48-1.47c-.94-.33-1.81-.25-2.17.8-.32.92.15,1.5.77,2.2l.91,1.01c.97,1.07,1.86,2.46,1.09,4.67-1.12,3.21-3.74,3.01-5.62,2.36Z"/>
            <path class="st163" d="M128.61,20.13l-2.73-1.39-5.22,10.27-2.48-1.26,5.22-10.27-3.01-1.53,1.08-2.13,8.5,4.32-1.36,1.98Z"/>
            <path class="st163" d="M137.49,26.16l-3.99-2.79-1.72,2.46,3.42,2.39-1.23,1.76-3.42-2.39-2.31,3.31,4.07,2.85-1.35,1.94-6.35-4.44,7.97-11.4,6.43,4.5-1.52,1.82Z"/>
            <path class="st163" d="M136.92,41.26l10.09-9.57,1.94,2.05-10.09,9.57-1.94-2.05Z"/>
            <path class="st163" d="M144.66,50.66l2.92-5.51c.91-1.72,2.33-3.79,2.33-3.79,0,0-2.08,1.93-3.49,2.96l-4.16,3.03-1.64-2.25,11.24-8.19,1.54,2.12-2.65,5.03c-1.05,2-2.46,3.95-2.46,3.95,0,0,2.27-2.05,3.51-2.95l3.92-2.85,1.64,2.25-11.24,8.19-1.45-1.99Z"/>
            <path class="st163" d="M148.37,57.3c-.81-1.57-1.07-3.16-1.07-3.16l2.12-1.09s.36,2,.8,2.85c.52,1.01,1.28,1.75,2.48,1.13,1.1-.56,1.1-1.37,1.14-2.46l.05-1.43c.05-1.34.46-2.76,2.21-3.66,2.7-1.39,4.57.46,5.41,2.09.89,1.73.9,2.93.9,2.93l-2.01,1.04s-.17-1.59-.78-2.77c-.45-.88-1.14-1.43-2.13-.92-.86.45-.93,1.19-.96,2.13l-.04,1.36c-.04,1.45-.35,3.06-2.43,4.13-3.02,1.55-4.78-.4-5.69-2.16Z"/>
            <path class="st163" d="M164.82,66.59l-1.02-2.88-10.86,3.84-.93-2.62,10.86-3.84-1.13-3.18,2.25-.8,3.18,8.99-2.35.5Z"/>
            <path class="st163" d="M154.22,71.99l13.55-3.13.63,2.75-13.55,3.13-.63-2.75Z"/>
            <path class="st163" d="M167.79,83.91l-.36-3.04-11.44,1.35-.33-2.76,11.44-1.35-.4-3.35,2.37-.28,1.12,9.47-2.4-.04Z"/>
            <path class="st163" d="M156.03,91.15c.13-3.5,1.74-4.47,4.66-4.36l9.61.36-.1,2.78-9.53-.35c-1.71-.06-2.36.37-2.41,1.66-.04,1.19.53,1.77,2.28,1.83l9.53.35-.1,2.78-9.61-.36c-2.84-.11-4.44-1.34-4.32-4.69Z"/>
            <path class="st163" d="M165.51,108.15l.58-3-11.32-2.16.52-2.73,11.32,2.16.63-3.32,2.34.45-1.79,9.37-2.28-.76Z"/>
            <path class="st163" d="M162.18,118.36l1.57-4.61-2.84-.97-1.35,3.95-2.03-.69,1.35-3.95-3.82-1.3-1.6,4.7-2.24-.76,2.5-7.33,13.16,4.49-2.53,7.43-2.17-.95Z"/>
          </g>
          <polygon class="st163" points="31.4 129.68 32.86 134.18 37.59 134.18 33.76 136.97 35.22 141.46 31.4 138.68 27.57 141.46 29.03 136.97 25.2 134.18 29.93 134.18 31.4 129.68"/>
          <polygon class="st163" points="146.2 129.68 147.66 134.18 152.39 134.18 148.57 136.97 150.03 141.46 146.2 138.68 142.37 141.46 143.83 136.97 140.01 134.18 144.74 134.18 146.2 129.68"/>
        </g>
        <g>
          <path class="st162" d="M55.97,219.48h-7.91v29.01h-6.01v-29.01h-7.91v-5.57h21.83v5.57Z"/>
          <path class="st162" d="M70.2,241.07h-8.2l-1.9,7.42h-5.86l8.16-34.57h7.57l8.11,34.57h-5.96l-1.9-7.42ZM66.15,221.14l-2.88,14.36h5.71l-2.83-14.36Z"/>
          <path class="st162" d="M79.75,238.67v-1.37h6.01v2.05c0,2.93,2.1,4.39,5.03,4.39,2.73,0,4.79-1.51,4.79-4.3,0-7.33-15.14-5.37-15.14-16.51,0-5.71,3.66-9.72,10.25-9.72s10.4,3.76,10.4,9.43v2.05h-6.01v-2.49c0-2.05-1.76-3.42-4.39-3.42s-4.25,1.37-4.25,3.81c0,6.2,15.14,4.44,15.14,16.26.05,6.1-4,10.3-10.89,10.3s-10.94-4.15-10.94-10.5Z"/>
          <path class="st162" d="M125.39,219.48h-7.91v29.01h-6.01v-29.01h-7.91v-5.57h21.83v5.57Z"/>
          <path class="st162" d="M134.08,219.48v9.33h9.23v5.57h-9.23v8.55h11.28v5.57h-17.29v-34.57h17.29v5.57h-11.28Z"/>
        </g>
        <g>
          <path class="st162" d="M68.27,264.51h-3.1l-.72,2.8h-2.21l3.08-13.06h2.86l3.06,13.06h-2.25l-.72-2.8ZM66.74,256.98l-1.09,5.42h2.16l-1.07-5.42Z"/>
          <path class="st162" d="M85.69,254.25l-2.88,13.06h-2.25l-1.83-8.28-1.83,8.28h-2.23l-2.9-13.06h2.34l1.77,9.67,1.99-9.67h1.72l2.07,9.67,1.72-9.67h2.31Z"/>
          <path class="st162" d="M92.28,264.51h-3.1l-.72,2.8h-2.21l3.08-13.06h2.86l3.06,13.06h-2.25l-.72-2.8ZM90.75,256.98l-1.09,5.42h2.16l-1.07-5.42Z"/>
          <path class="st162" d="M103.39,267.31l-1.7-5.04h-1.96v5.04h-2.27v-13.06h4.13c2.27,0,3.76,1.38,3.76,3.41v1.2c0,1.24-.55,2.23-1.49,2.82l1.9,5.63h-2.38ZM99.74,260.17h1.99c.9,0,1.38-.44,1.38-1.24v-1.35c0-.79-.48-1.24-1.37-1.24h-2.01v3.82Z"/>
          <path class="st162" d="M116.15,257.92v5.72c0,2.2-1.59,3.67-4.06,3.67h-3.99v-13.06h3.97c2.47,0,4.08,1.48,4.08,3.67ZM113.88,257.91c0-.98-.55-1.55-1.64-1.55h-1.86v8.86h1.85c1.11,0,1.66-.57,1.66-1.55v-5.76Z"/>
        </g>
        <g>
          <path class="st162" d="M51.78,203.12v-.52s2.27,0,2.27,0v.77c0,1.11.79,1.66,1.9,1.66,1.03,0,1.81-.57,1.81-1.62,0-2.77-5.72-2.03-5.72-6.24,0-2.16,1.38-3.67,3.88-3.67,2.51,0,3.93,1.42,3.93,3.56v.77h-2.27v-.94c0-.77-.66-1.29-1.66-1.29-.96,0-1.61.52-1.61,1.44,0,2.34,5.72,1.68,5.72,6.14.02,2.31-1.51,3.89-4.11,3.89-2.56,0-4.13-1.57-4.13-3.97Z"/>
          <path class="st162" d="M62.33,203.4v-9.63s2.27,0,2.27,0v9.65c0,.98.53,1.57,1.73,1.57,1.24,0,1.75-.59,1.75-1.57v-9.65s2.27,0,2.27,0v9.63c0,2.2-1.5,3.69-4.01,3.69-2.49,0-4.02-1.5-4.02-3.69Z"/>
          <path class="st162" d="M80.76,197.21v1.75c0,2.05-1.48,3.43-3.76,3.43h-1.86s0,4.45,0,4.45h-2.27s0-13.06,0-13.06h4.13c2.27,0,3.76,1.39,3.76,3.43ZM78.51,197.13c0-.79-.48-1.25-1.36-1.25h-2.01s0,4.41,0,4.41h1.99c.9,0,1.38-.46,1.38-1.25v-1.9Z"/>
          <path class="st162" d="M85.39,195.88v3.52s3.49,0,3.49,0v2.1s-3.49,0-3.49,0v3.23s4.26,0,4.26,0v2.1s-6.53,0-6.53,0v-13.06s6.53,0,6.53,0v2.1s-4.26,0-4.26,0Z"/>
          <path class="st162" d="M97.93,206.84l-1.7-5.04h-1.96s0,5.04,0,5.04h-2.27s0-13.06,0-13.06h4.13c2.27,0,3.76,1.39,3.76,3.41v1.2c0,1.24-.55,2.23-1.5,2.82l1.9,5.63h-2.38ZM94.28,199.7h1.99c.9,0,1.38-.44,1.38-1.24v-1.35c0-.79-.48-1.24-1.36-1.24h-2.01s0,3.82,0,3.82Z"/>
          <path class="st162" d="M102.64,193.78h2.27s0,13.06,0,13.06h-2.27s0-13.06,0-13.06Z"/>
          <path class="st162" d="M107.37,203.41v-6.16c0-2.21,1.57-3.73,4.17-3.73,2.6,0,4.17,1.51,4.17,3.73v6.16c0,2.2-1.57,3.69-4.17,3.69-2.6,0-4.17-1.5-4.17-3.69ZM113.44,203.43v-6.22c0-1-.53-1.59-1.9-1.59-1.37,0-1.9.59-1.9,1.59v6.22c0,.98.53,1.57,1.9,1.57,1.37,0,1.9-.59,1.9-1.57Z"/>
          <path class="st162" d="M124.11,206.85l-1.7-5.04h-1.96s0,5.04,0,5.04h-2.27s0-13.06,0-13.06h4.13c2.27,0,3.76,1.39,3.76,3.41v1.2c0,1.24-.55,2.23-1.5,2.82l1.9,5.63h-2.38ZM120.45,199.71h1.99c.9,0,1.38-.44,1.38-1.24v-1.35c0-.79-.48-1.24-1.36-1.24h-2.01s0,3.82,0,3.82Z"/>
        </g>
        <polygon class="st162" points="72.3 274.53 74.81 282.23 82.9 282.23 76.35 286.99 78.85 294.69 72.3 289.93 65.75 294.69 68.26 286.99 61.71 282.23 69.8 282.23 72.3 274.53"/>
        <polygon class="st162" points="105.14 274.65 107.64 282.35 115.73 282.35 109.18 287.11 111.68 294.81 105.14 290.05 98.59 294.81 101.09 287.11 94.54 282.35 102.63 282.35 105.14 274.65"/>
        <g>
          <g>
            <path class="st102" d="M54.48,218.04h-7.91v29.01h-6.01v-29.01h-7.91v-5.57h21.83v5.57Z"/>
            <path class="st101" d="M46.89,247.38h-6.66v-29.01h-7.91v-6.22h22.48v6.22h-7.91v29.01ZM40.88,246.73h5.36v-29.01h7.91v-4.92h-21.18v4.92h7.91v29.01Z"/>
          </g>
          <g>
            <path class="st98" d="M68.71,239.63h-8.2l-1.9,7.42h-5.86l8.16-34.57h7.57l8.11,34.57h-5.96l-1.9-7.42ZM64.66,219.7l-2.88,14.36h5.71l-2.83-14.36Z"/>
            <path class="st100" d="M76.98,247.38h-6.62l-1.9-7.42h-7.7l-1.9,7.42h-6.52l8.31-35.22h8.08l8.26,35.22ZM70.87,246.73h5.3l-7.95-33.92h-7.05l-8,33.92h5.2l1.9-7.42h8.71l1.9,7.42ZM67.89,234.39h-6.51l3.28-16.35,3.23,16.35ZM62.17,233.74h4.92l-2.44-12.37-2.48,12.37Z"/>
          </g>
          <g>
            <path class="st99" d="M78.26,237.23v-1.37h6.01v2.05c0,2.93,2.1,4.39,5.03,4.39,2.73,0,4.79-1.51,4.79-4.3,0-7.33-15.14-5.37-15.14-16.51,0-5.71,3.66-9.72,10.25-9.72s10.4,3.76,10.4,9.43v2.05h-6.01v-2.49c0-2.05-1.76-3.42-4.39-3.42s-4.25,1.37-4.25,3.81c0,6.2,15.14,4.44,15.14,16.26.05,6.1-4,10.3-10.89,10.3s-10.94-4.15-10.94-10.5Z"/>
            <path class="st96" d="M89.2,248.06c-6.84,0-11.26-4.25-11.26-10.82v-1.69h6.66v2.38c0,2.55,1.76,4.07,4.7,4.07,2.75,0,4.46-1.52,4.46-3.97,0-3.07-2.87-4.42-6.2-5.97-4.19-1.96-8.94-4.18-8.94-10.53s4.05-10.04,10.58-10.04,10.73,3.74,10.73,9.75v2.38h-6.66v-2.82c0-1.88-1.6-3.09-4.07-3.09s-3.92,1.3-3.92,3.48c0,2.4,2.58,3.56,5.58,4.9,4.26,1.91,9.56,4.3,9.56,11.36.02,3.05-.95,5.67-2.82,7.55-2,2.01-4.9,3.08-8.4,3.08ZM78.59,236.19v1.04c0,6.28,4.07,10.17,10.61,10.17,3.32,0,6.06-1,7.93-2.88,1.74-1.76,2.65-4.21,2.63-7.09,0-6.65-4.88-8.84-9.18-10.77-3.2-1.44-5.96-2.68-5.96-5.49,0-2.55,1.75-4.13,4.57-4.13s4.72,1.5,4.72,3.74v2.17h5.36v-1.73c0-5.7-3.77-9.1-10.08-9.1s-9.93,3.6-9.93,9.39,4.35,7.98,8.56,9.94c3.38,1.58,6.58,3.07,6.58,6.56,0,2.81-2.01,4.62-5.11,4.62-3.3,0-5.35-1.81-5.35-4.72v-1.73h-5.36Z"/>
          </g>
          <g>
            <path class="st148" d="M123.9,218.04h-7.91v29.01h-6.01v-29.01h-7.91v-5.57h21.83v5.57Z"/>
            <path class="st147" d="M116.31,247.38h-6.66v-29.01h-7.91v-6.22h22.48v6.22h-7.91v29.01ZM110.3,246.73h5.36v-29.01h7.91v-4.92h-21.18v4.92h7.91v29.01Z"/>
          </g>
          <g>
            <path class="st144" d="M132.59,218.04v9.33h9.23v5.57h-9.23v8.55h11.28v5.57h-17.29v-34.57h17.29v5.57h-11.28Z"/>
            <path class="st143" d="M144.2,247.38h-17.94v-35.22h17.94v6.22h-11.28v8.68h9.23v6.22h-9.23v7.9h11.28v6.22ZM126.91,246.73h16.64v-4.92h-11.28v-9.2h9.23v-4.92h-9.23v-9.98h11.28v-4.92h-16.64v33.92Z"/>
          </g>
        </g>
        <g>
          <g>
            <path class="st150" d="M67.33,263.64h-3.1l-.72,2.8h-2.21l3.08-13.06h2.86l3.06,13.06h-2.25l-.72-2.8ZM65.8,256.11l-1.09,5.42h2.16l-1.07-5.42Z"/>
            <path class="st145" d="M70.51,266.6h-2.58l-.72-2.8h-2.85l-.72,2.8h-2.55l3.16-13.39h3.12l3.14,13.39ZM68.18,266.28h1.92l-2.99-12.74h-2.6l-3,12.74h1.88l.72-2.8h3.35l.72,2.8ZM67.07,261.7h-2.55l1.29-6.42,1.27,6.42ZM64.91,261.37h1.76l-.87-4.43-.89,4.43Z"/>
          </g>
          <g>
            <path class="st146" d="M84.75,253.38l-2.88,13.06h-2.25l-1.83-8.28-1.83,8.28h-2.23l-2.9-13.06h2.34l1.77,9.67,1.99-9.67h1.72l2.07,9.67,1.72-9.67h2.31Z"/>
            <path class="st149" d="M82.01,266.6h-2.51l-1.7-7.69-1.7,7.69h-2.49l-2.97-13.39h2.68l1.65,8.98,1.85-8.98h1.98l1.92,8.98,1.59-8.98h2.64l-2.95,13.39ZM79.76,266.28h1.99l2.81-12.74h-1.97l-1.84,10.35-2.21-10.35h-1.45l-2.13,10.36-1.9-10.36h-2.01l2.82,12.74h1.97l1.96-8.88,1.96,8.88Z"/>
          </g>
          <g>
            <path class="st142" d="M91.34,263.64h-3.1l-.72,2.8h-2.21l3.08-13.06h2.86l3.06,13.06h-2.25l-.72-2.8ZM89.81,256.11l-1.09,5.42h2.16l-1.07-5.42Z"/>
            <path class="st151" d="M94.51,266.6h-2.58l-.72-2.8h-2.85l-.72,2.8h-2.55l3.16-13.39h3.12l3.14,13.39ZM92.18,266.28h1.92l-2.99-12.74h-2.6l-3,12.74h1.88l.72-2.8h3.35l.72,2.8ZM91.08,261.7h-2.55l1.29-6.42,1.27,6.42ZM88.92,261.37h1.76l-.87-4.43-.89,4.43Z"/>
          </g>
          <g>
            <path class="st157" d="M102.45,266.44l-1.7-5.04h-1.96v5.04h-2.27v-13.06h4.13c2.27,0,3.76,1.38,3.76,3.41v1.2c0,1.24-.55,2.23-1.49,2.82l1.9,5.63h-2.38ZM98.8,259.3h1.99c.9,0,1.38-.44,1.38-1.24v-1.35c0-.79-.48-1.24-1.37-1.24h-2.01v3.82Z"/>
            <path class="st156" d="M105.06,266.6h-2.72l-1.7-5.04h-1.68v5.04h-2.59v-13.39h4.29c2.35,0,3.93,1.44,3.93,3.58v1.2c0,1.23-.52,2.25-1.46,2.89l1.93,5.72ZM102.57,266.28h2.04l-1.87-5.53.11-.07c.91-.57,1.42-1.53,1.42-2.68v-1.2c0-1.94-1.45-3.25-3.6-3.25h-3.97v12.74h1.94v-5.04h2.23l1.7,5.04ZM100.79,259.46h-2.15v-4.14h2.17c.97,0,1.53.51,1.53,1.4v1.35c0,.89-.56,1.4-1.55,1.4ZM98.96,259.14h1.83c.81,0,1.22-.36,1.22-1.07v-1.35c0-.89-.65-1.07-1.2-1.07h-1.85v3.49Z"/>
          </g>
          <g>
            <path class="st153" d="M115.21,257.05v5.72c0,2.2-1.59,3.67-4.06,3.67h-3.99v-13.06h3.97c2.47,0,4.08,1.48,4.08,3.67ZM112.94,257.03c0-.98-.55-1.55-1.64-1.55h-1.86v8.86h1.85c1.11,0,1.66-.57,1.66-1.55v-5.76Z"/>
            <path class="st152" d="M111.15,266.6h-4.15v-13.39h4.13c2.54,0,4.24,1.54,4.24,3.83v5.72c0,2.29-1.7,3.83-4.22,3.83ZM107.32,266.28h3.82c2.37,0,3.9-1.38,3.9-3.51v-5.72c0-2.13-1.54-3.51-3.91-3.51h-3.8v12.74ZM111.28,264.5h-2.01v-9.18h2.03c1.15,0,1.8.62,1.8,1.71v5.76c0,1.09-.66,1.71-1.82,1.71ZM109.59,264.18h1.68c.99,0,1.5-.47,1.5-1.39v-5.76c0-.91-.51-1.39-1.48-1.39h-1.7v8.53Z"/>
          </g>
        </g>
        <g>
          <g>
            <path class="st154" d="M50.92,202.19v-.52h2.27v.77c0,1.11.79,1.66,1.9,1.66,1.03,0,1.81-.57,1.81-1.62,0-2.77-5.72-2.03-5.72-6.24,0-2.16,1.38-3.67,3.87-3.67s3.93,1.42,3.93,3.56v.77h-2.27v-.94c0-.77-.66-1.29-1.66-1.29s-1.61.52-1.61,1.44c0,2.34,5.72,1.68,5.72,6.14.02,2.31-1.51,3.89-4.11,3.89s-4.13-1.57-4.13-3.97Z"/>
            <path class="st155" d="M55.06,206.32c-2.61,0-4.29-1.62-4.29-4.13v-.68h2.59v.94c0,.95.63,1.5,1.74,1.5,1.02,0,1.65-.56,1.65-1.46,0-1.14-1.08-1.64-2.32-2.22-1.59-.74-3.4-1.59-3.4-4.02s1.55-3.83,4.04-3.83,4.09,1.43,4.09,3.72v.94h-2.59v-1.1c0-.69-.59-1.13-1.5-1.13s-1.44.48-1.44,1.28c0,.88.97,1.31,2.08,1.82,1.62.73,3.64,1.63,3.64,4.33,0,1.16-.36,2.16-1.08,2.88-.76.77-1.87,1.17-3.2,1.17ZM51.09,201.83v.35c0,2.35,1.52,3.8,3.97,3.8,1.24,0,2.27-.37,2.97-1.08.65-.66.99-1.57.98-2.65,0-2.49-1.83-3.31-3.44-4.03-1.17-.53-2.28-1.02-2.28-2.11,0-.99.68-1.6,1.77-1.6s1.82.58,1.82,1.45v.78h1.94v-.61c0-2.13-1.41-3.4-3.77-3.4s-3.71,1.34-3.71,3.51,1.63,2.98,3.21,3.72c1.29.6,2.51,1.17,2.51,2.52,0,1.08-.77,1.79-1.97,1.79-1.27,0-2.06-.7-2.06-1.82v-.61h-1.94Z"/>
          </g>
          <g>
            <path class="st159" d="M61.47,202.46v-9.63h2.27v9.65c0,.98.54,1.57,1.73,1.57s1.75-.59,1.75-1.57v-9.65h2.27v9.63c0,2.2-1.49,3.69-4,3.69s-4.02-1.49-4.02-3.69Z"/>
            <path class="st158" d="M65.5,206.32c-2.54,0-4.18-1.51-4.18-3.85v-9.79h2.59v9.81c0,.95.51,1.41,1.57,1.41s1.59-.46,1.59-1.41v-9.81h2.59v9.79c0,2.34-1.64,3.85-4.17,3.85ZM61.64,193v9.47c0,2.14,1.51,3.53,3.86,3.53s3.84-1.35,3.84-3.53v-9.47h-1.94v9.49c0,.79-.33,1.73-1.91,1.73-1.22,0-1.9-.61-1.9-1.73v-9.49h-1.94Z"/>
          </g>
          <g>
            <path class="st140" d="M79.9,196.27v1.75c0,2.05-1.48,3.43-3.76,3.43h-1.86v4.45h-2.27v-13.06h4.13c2.27,0,3.76,1.38,3.76,3.43ZM77.65,196.19c0-.79-.48-1.25-1.37-1.25h-2.01v4.41h1.99c.9,0,1.38-.46,1.38-1.25v-1.9Z"/>
            <path class="st141" d="M74.44,206.06h-2.59v-13.39h4.29c2.35,0,3.93,1.44,3.93,3.59v1.75c0,2.15-1.58,3.59-3.93,3.59h-1.7v4.45ZM72.17,205.73h1.94v-4.45h2.03c2.19,0,3.6-1.28,3.6-3.27v-1.75c0-1.96-1.45-3.27-3.6-3.27h-3.97v12.74ZM76.27,199.51h-2.15v-4.73h2.17c.97,0,1.53.52,1.53,1.42v1.9c0,.9-.56,1.42-1.55,1.42ZM74.44,199.18h1.83c.56,0,1.22-.19,1.22-1.09v-1.9c0-.71-.42-1.09-1.2-1.09h-1.85v4.08Z"/>
          </g>
          <g>
            <path class="st105" d="M84.53,194.94v3.52h3.49v2.1h-3.49v3.23h4.26v2.1h-6.53v-13.06h6.53v2.1h-4.26Z"/>
            <path class="st104" d="M88.96,206.06h-6.86v-13.39h6.86v2.43h-4.26v3.2h3.49v2.43h-3.49v2.9h4.26v2.43ZM82.43,205.73h6.21v-1.78h-4.26v-3.55h3.49v-1.78h-3.49v-3.85h4.26v-1.78h-6.21v12.74Z"/>
          </g>
          <g>
            <path class="st107" d="M97.07,205.9l-1.7-5.04h-1.96v5.04h-2.27v-13.06h4.13c2.27,0,3.76,1.38,3.76,3.41v1.2c0,1.24-.55,2.23-1.49,2.82l1.9,5.63h-2.38ZM93.42,198.76h1.99c.9,0,1.38-.44,1.38-1.24v-1.35c0-.79-.48-1.24-1.37-1.24h-2.01v3.82Z"/>
            <path class="st120" d="M99.68,206.06h-2.72l-1.7-5.04h-1.68v5.04h-2.59v-13.39h4.29c2.35,0,3.93,1.44,3.93,3.58v1.2c0,1.23-.52,2.25-1.46,2.89l1.93,5.72ZM97.19,205.73h2.04l-1.87-5.53.11-.07c.91-.57,1.42-1.53,1.42-2.68v-1.2c0-1.94-1.45-3.25-3.6-3.25h-3.97v12.74h1.94v-5.04h2.23l1.7,5.04ZM95.41,198.92h-2.15v-4.14h2.17c.97,0,1.53.51,1.53,1.4v1.35c0,.89-.56,1.4-1.55,1.4ZM93.58,198.59h1.83c.81,0,1.22-.36,1.22-1.07v-1.35c0-.89-.65-1.07-1.2-1.07h-1.85v3.49Z"/>
          </g>
          <g>
            <path class="st117" d="M101.78,192.83h2.27v13.06h-2.27v-13.06Z"/>
            <path class="st119" d="M104.21,206.06h-2.59v-13.39h2.59v13.39ZM101.94,205.73h1.94v-12.74h-1.94v12.74Z"/>
          </g>
          <g>
            <path class="st121" d="M106.51,202.46v-6.16c0-2.21,1.57-3.73,4.17-3.73s4.17,1.51,4.17,3.73v6.16c0,2.2-1.57,3.69-4.17,3.69s-4.17-1.49-4.17-3.69ZM112.58,202.48v-6.22c0-1-.54-1.59-1.9-1.59s-1.9.59-1.9,1.59v6.22c0,.98.54,1.57,1.9,1.57s1.9-.59,1.9-1.57Z"/>
            <path class="st118" d="M110.68,206.32c-2.63,0-4.33-1.51-4.33-3.85v-6.16c0-2.36,1.7-3.89,4.33-3.89s4.33,1.53,4.33,3.89v6.16c0,2.34-1.7,3.85-4.33,3.85ZM110.68,192.74c-2.43,0-4.01,1.4-4.01,3.56v6.16c0,2.14,1.57,3.53,4.01,3.53s4.01-1.38,4.01-3.53v-6.16c0-2.17-1.57-3.56-4.01-3.56ZM110.68,204.21c-1.37,0-2.06-.58-2.06-1.73v-6.22c0-1.16.69-1.75,2.06-1.75s2.06.59,2.06,1.75v6.22c0,1.15-.69,1.73-2.06,1.73ZM110.68,194.84c-1.19,0-1.74.45-1.74,1.42v6.22c0,.96.55,1.41,1.74,1.41s1.74-.45,1.74-1.41v-6.22c0-.97-.55-1.42-1.74-1.42Z"/>
          </g>
          <g>
            <path class="st106" d="M123.25,205.9l-1.7-5.04h-1.96v5.04h-2.27v-13.06h4.13c2.27,0,3.76,1.38,3.76,3.41v1.2c0,1.24-.55,2.23-1.49,2.82l1.9,5.63h-2.38ZM119.6,198.76h1.99c.9,0,1.38-.44,1.38-1.24v-1.35c0-.79-.48-1.24-1.37-1.24h-2.01v3.82Z"/>
            <path class="st116" d="M125.86,206.06h-2.72l-1.7-5.04h-1.68v5.04h-2.59v-13.39h4.29c2.35,0,3.93,1.44,3.93,3.58v1.2c0,1.23-.52,2.25-1.46,2.89l1.93,5.72ZM123.37,205.73h2.04l-1.87-5.53.11-.07c.91-.57,1.42-1.53,1.42-2.68v-1.2c0-1.94-1.45-3.25-3.6-3.25h-3.97v12.74h1.94v-5.04h2.23l1.7,5.04ZM121.59,198.92h-2.15v-4.14h2.17c.97,0,1.53.51,1.53,1.4v1.35c0,.89-.56,1.4-1.55,1.4ZM119.76,198.59h1.83c.81,0,1.22-.36,1.22-1.07v-1.35c0-.89-.65-1.07-1.2-1.07h-1.85v3.49Z"/>
          </g>
        </g>
        <g>
          <polygon class="st122" points="104.24 273.68 106.74 281.38 114.83 281.38 108.28 286.14 110.79 293.84 104.24 289.08 97.69 293.84 100.19 286.14 93.64 281.38 101.73 281.38 104.24 273.68"/>
          <path class="st123" d="M104.24,275.82l1.87,5.77.15.46h6.54l-4.91,3.56-.39.28.15.46,1.87,5.77-4.91-3.56-.39-.28-.39.28-4.91,3.56,1.87-5.77.15-.46-.39-.28-4.91-3.56h6.54l.15-.46,1.87-5.77M104.24,273.68l-2.5,7.7h-8.1l6.55,4.76-2.5,7.7,6.55-4.76,6.55,4.76-2.5-7.7,6.55-4.76h-8.1l-2.5-7.7h0Z"/>
        </g>
        <g>
          <polygon class="st124" points="71.41 273.68 73.91 281.38 82.01 281.38 75.46 286.14 77.96 293.84 71.41 289.08 64.86 293.84 67.36 286.14 60.81 281.38 68.91 281.38 71.41 273.68"/>
          <path class="st127" d="M71.41,275.82l1.87,5.77.15.46h6.54l-4.91,3.56-.39.28.15.46,1.87,5.77-4.91-3.56-.39-.28-.39.28-4.91,3.56,1.87-5.77.15-.46-.39-.28-4.91-3.56h6.54l.15-.46,1.87-5.77M71.41,273.68l-2.5,7.7h-8.1l6.55,4.76-2.5,7.7,6.55-4.76,6.55,4.76-2.5-7.7,6.55-4.76h-8.1l-2.5-7.7h0Z"/>
        </g>
        <g>
          <rect class="st162" x="55.9" y="98.39" width="66.6" height="2.49"/>
          <rect class="st162" x="60.97" y="93.64" width="56.46" height="2.49"/>
          <g>
            <path class="st162" d="M113.12,58.8s-.06-1.32-1.18-1.37c-1.12-.05-1.47,1.3-1.47,1.3,0,0-2.67,7.99-1.29,15.28,0,0,2.15-.23,1.84,2.72,0,0-1.25,11.94-1.25,12.05,0,1.25,1.01,2.26,2.26,2.26s2.26-1.01,2.26-2.26c0-.1-1.56-19.26-1.17-29.98Z"/>
            <path class="st162" d="M102.45,65.1c0-3.44-1.89-7.75-4.22-7.75s-4.22,4.32-4.22,7.75c0,3.13,1.57,4.44,3.62,4.65-.22,9.78-1.3,16.83-1.58,18.51-.04.17-.07.34-.07.53,0,1.24,1.01,2.25,2.25,2.25s2.25-1.01,2.25-2.25c0-.17-.02-.34-.06-.5-1.16-6.84-1.49-14.92-1.59-18.54,2.04-.21,3.61-1.52,3.61-4.65Z"/>
          </g>
          <rect class="st162" x="60.97" y="52.4" width="56.46" height="2.49"/>
          <polygon class="st93" points="122.5 48.07 89.21 37.08 55.9 48.08 55.9 49.96 122.5 49.96 122.5 48.07"/>
          <path class="st162" d="M69.46,64.21c0,.21-.18.36-.38.36s-.37-.16-.38-.36l-.34-6.8s0,0,0-.01h-.36s0,0,0,0l-.34,6.79c0,.19-.15.36-.34.38-.23.03-.42-.14-.43-.36l-.34-6.8s0,0,0-.01h-.37s0,0,0,0l-.34,6.81c0,.21-.18.36-.38.36s-.37-.16-.38-.36l-.33-6.81h-.37l-.24,9.26c0,.2.02.4.06.6.23,1.28,1.26,2.23,2.51,2.47-.22,9.79-1.3,16.84-1.58,18.52-.04.17-.07.34-.07.53,0,1.24,1.01,2.25,2.25,2.25s2.25-1.01,2.25-2.25c0-.17-.02-.34-.06-.5-1.16-6.85-1.49-14.95-1.59-18.56,1.25-.24,2.28-1.19,2.51-2.47.04-.2.06-.4.06-.6l-.26-9.26h-.37l-.36,6.81Z"/>
          <path class="st93" d="M83.08,87.32c-.12-.54-.11-1.13-.13-1.68-.03-.89-.06-5.6-.05-7.32,0-1.26-.16-2.84.55-3.92.97-1.48,2.72-1.76,3.97-2.86,2.35-2.06,1.33-5.51.71-8.1-.49-2.03-1.05-4.04-1.68-6.03h-8.98c-.63,1.99-1.19,4-1.68,6.03-.62,2.6-1.64,6.04.71,8.1,1.26,1.1,3.01,1.39,3.97,2.86.71,1.09.54,2.66.55,3.92,0,1.72-.02,6.43-.05,7.32-.02.55-.02,1.14-.13,1.68-.19.9-1.12,1.58-1.86,2.03-.84.52-2.71,1.19-2.71,1.19v.49h11.37v-.49c-.94-.31-1.87-.66-2.71-1.19-.73-.46-1.67-1.14-1.86-2.03Z"/>
        </g>
        <g>
          <g>
            <rect class="st128" x="54.94" y="97.18" width="66.6" height="2.49"/>
            <path class="st130" d="M121.71,99.84H54.77v-2.82h66.93v2.82ZM55.11,99.51h66.27v-2.16H55.11v2.16Z"/>
          </g>
          <g>
            <rect class="st125" x="60.01" y="92.44" width="56.46" height="2.49"/>
            <path class="st129" d="M116.64,95.09h-56.79v-2.82h56.79v2.82ZM60.18,94.76h56.13v-2.16h-56.13v2.16Z"/>
          </g>
          <g>
            <g>
              <path class="st126" d="M112.16,57.6s-.06-1.32-1.18-1.37c-1.12-.05-1.47,1.3-1.47,1.3,0,0-2.67,7.99-1.29,15.28,0,0,2.15-.23,1.84,2.72,0,0-1.25,11.94-1.25,12.05,0,1.25,1.01,2.26,2.26,2.26s2.26-1.01,2.26-2.26c0-.1-1.56-19.26-1.17-29.98Z"/>
              <path class="st131" d="M111.07,90c-1.34,0-2.43-1.09-2.43-2.43,0-.1.96-9.26,1.25-12.06.1-.98-.06-1.7-.49-2.12-.49-.49-1.17-.42-1.17-.42l-.15.02-.03-.15c-1.37-7.25,1.27-15.28,1.29-15.36.13-.5.63-1.46,1.63-1.41,1.01.04,1.32,1.02,1.34,1.53h0s0,.01,0,.01c-.33,8.94.69,23.7,1.14,29.63.02.21.02.33.02.34,0,1.34-1.09,2.43-2.43,2.43ZM108.36,72.63c.27,0,.84.07,1.29.52.5.5.7,1.3.58,2.39-.43,4.08-1.24,11.85-1.25,12.03,0,1.15.94,2.09,2.09,2.09s2.09-.94,2.09-2.09c0-.01,0-.12-.02-.31-.45-5.93-1.47-20.7-1.14-29.66,0-.1-.1-1.17-1.03-1.21-.98-.05-1.29,1.13-1.3,1.18-.03.09-2.61,7.94-1.31,15.07Z"/>
            </g>
            <g>
              <path class="st132" d="M101.49,63.89c0-3.44-1.89-7.75-4.22-7.75s-4.22,4.32-4.22,7.75c0,3.13,1.57,4.44,3.62,4.65-.22,9.78-1.3,16.83-1.58,18.51-.04.17-.07.34-.07.53,0,1.24,1.01,2.25,2.25,2.25s2.25-1.01,2.25-2.25c0-.17-.02-.34-.06-.5-1.16-6.84-1.49-14.92-1.59-18.54,2.04-.21,3.61-1.52,3.61-4.65Z"/>
              <path class="st133" d="M97.27,90c-1.33,0-2.42-1.08-2.42-2.42,0-.18.02-.36.07-.57.31-1.87,1.35-8.75,1.57-18.32-2.33-.3-3.61-2-3.61-4.8,0-3.59,1.96-7.92,4.39-7.92s4.39,4.33,4.39,7.92c0,2.8-1.28,4.49-3.61,4.8.11,4.09.46,11.77,1.58,18.36.04.18.06.35.06.53,0,1.33-1.08,2.42-2.42,2.42ZM97.27,56.31c-2.18,0-4.05,4.17-4.05,7.59s1.89,4.33,3.47,4.49l.15.02v.15c-.22,9.68-1.27,16.63-1.58,18.53-.05.19-.07.35-.07.5,0,1.15.94,2.09,2.09,2.09s2.09-.94,2.09-2.09c0-.15-.02-.3-.06-.46-1.14-6.71-1.49-14.51-1.59-18.57v-.15s.15-.02.15-.02c1.58-.16,3.47-1.07,3.47-4.48s-1.87-7.59-4.05-7.59Z"/>
            </g>
          </g>
          <g>
            <rect class="st134" x="60.01" y="51.19" width="56.46" height="2.49"/>
            <path class="st136" d="M116.64,53.85h-56.79v-2.82h56.79v2.82ZM60.18,53.52h56.13v-2.16h-56.13v2.16Z"/>
          </g>
          <g>
            <polygon class="st92" points="121.54 46.87 88.25 35.88 54.94 46.87 54.94 48.76 121.54 48.76 121.54 46.87"/>
            <path class="st139" d="M121.71,48.92H54.77v-2.17l33.47-11.05.05.02,33.41,11.03v2.18ZM55.11,48.59h66.27v-1.61l-33.13-10.93-33.14,10.94v1.6Z"/>
          </g>
          <g>
            <path class="st137" d="M68.51,63c0,.21-.18.36-.38.36s-.37-.16-.38-.36l-.34-6.8s0,0,0-.01h-.36s0,0,0,0l-.34,6.79c0,.19-.15.36-.34.38-.23.03-.42-.14-.43-.36l-.34-6.8s0,0,0-.01h-.37s0,0,0,0l-.34,6.81c0,.21-.18.36-.38.36s-.37-.16-.38-.36l-.33-6.81h-.37l-.24,9.26c0,.2.02.4.06.6.23,1.28,1.26,2.23,2.51,2.47-.22,9.79-1.3,16.84-1.58,18.52-.04.17-.07.34-.07.53,0,1.24,1.01,2.25,2.25,2.25s2.25-1.01,2.25-2.25c0-.17-.02-.34-.06-.5-1.16-6.85-1.49-14.95-1.59-18.56,1.25-.24,2.28-1.19,2.51-2.47.04-.2.06-.4.06-.6l-.26-9.26h-.37l-.36,6.81Z"/>
            <path class="st138" d="M66.32,90c-1.33,0-2.42-1.08-2.42-2.42,0-.18.02-.36.07-.57.31-1.87,1.35-8.75,1.57-18.35-1.28-.3-2.28-1.32-2.5-2.57-.04-.21-.06-.42-.06-.63l.25-9.43h.69l.34,6.97c0,.12.1.21.22.21s.21-.09.22-.2l.34-6.97h.67l.04.17h0s.34,6.8.34,6.8c0,.06.03.12.08.16.05.04.11.06.17.05.11-.01.19-.11.2-.23l.34-6.95h.68l.02.18.34,6.79c0,.12.1.21.22.21s.21-.09.22-.2h0s.37-6.97.37-6.97h.69l.26,9.43c0,.22-.02.43-.06.64-.22,1.25-1.21,2.27-2.5,2.57.09,3.35.42,11.56,1.58,18.4.04.18.06.36.06.53,0,1.33-1.08,2.42-2.42,2.42ZM63.56,56.36l-.24,9.1c0,.18.02.38.05.57.21,1.17,1.17,2.11,2.38,2.34l.14.03v.14c-.22,9.69-1.27,16.65-1.58,18.55-.05.19-.07.35-.07.5,0,1.15.94,2.09,2.09,2.09s2.09-.94,2.09-2.09c0-.15-.02-.3-.06-.46-1.18-6.97-1.51-15.32-1.59-18.59v-.14s.14-.03.14-.03c1.22-.23,2.17-1.17,2.38-2.33.04-.19.05-.38.05-.57l-.25-9.1h-.05l-.35,6.65c-.01.29-.25.52-.55.52s-.53-.23-.55-.52l-.34-6.65h-.05l-.34,6.63c-.01.28-.23.51-.49.54-.15.02-.3-.02-.42-.12-.12-.1-.19-.24-.19-.4l-.34-6.65h-.06l-.34,6.65c-.01.29-.25.52-.55.52s-.53-.23-.55-.52l-.33-6.65h-.05Z"/>
          </g>
          <g>
            <path class="st91" d="M82.13,86.12c-.12-.54-.11-1.13-.13-1.68-.03-.89-.06-5.6-.05-7.32,0-1.26-.16-2.84.55-3.92.97-1.48,2.72-1.76,3.97-2.86,2.35-2.06,1.33-5.51.71-8.1-.49-2.03-1.05-4.04-1.68-6.03h-8.98c-.63,1.99-1.19,4-1.68,6.03-.62,2.6-1.64,6.04.71,8.1,1.26,1.1,3.01,1.39,3.97,2.86.71,1.09.54,2.66.55,3.92,0,1.72-.02,6.43-.05,7.32-.02.55-.02,1.14-.13,1.68-.19.9-1.12,1.58-1.86,2.03-.84.52-2.71,1.19-2.71,1.19v.49h11.37v-.49c-.94-.31-1.87-.66-2.71-1.19-.73-.46-1.67-1.14-1.86-2.03Z"/>
            <path class="st135" d="M86.86,90h-11.7v-.78l.11-.04s1.86-.66,2.68-1.17c.68-.42,1.6-1.08,1.78-1.93.09-.43.11-.89.12-1.34v-.31c.04-.85.07-5.52.06-7.31,0-.21,0-.42,0-.64.02-1.09.04-2.32-.53-3.19-.55-.85-1.37-1.28-2.24-1.74-.58-.31-1.18-.63-1.7-1.08-2.29-2.01-1.51-5.22-.88-7.8l.11-.46c.46-1.94,1.03-3.97,1.68-6.04l.04-.12h9.22l.04.12c.65,2.07,1.22,4.1,1.68,6.04l.11.46c.63,2.58,1.41,5.79-.88,7.8-.52.46-1.12.78-1.7,1.08-.87.46-1.69.9-2.24,1.74-.57.87-.55,2.1-.53,3.19,0,.22,0,.43,0,.64,0,1.79.02,6.46.05,7.31v.31c.02.45.04.91.13,1.34.18.85,1.11,1.51,1.78,1.93.89.55,1.9.92,2.68,1.17l.11.04v.78ZM75.49,89.67h11.04v-.21c-.78-.26-1.75-.62-2.63-1.17-.73-.46-1.73-1.17-1.93-2.14h0c-.1-.46-.11-.94-.13-1.4v-.31c-.05-.91-.07-5.69-.06-7.32,0-.2,0-.42,0-.63-.02-1.14-.04-2.43.58-3.38.6-.92,1.5-1.4,2.36-1.86.56-.3,1.15-.61,1.64-1.04,2.14-1.88,1.38-4.98.77-7.47l-.11-.47c-.45-1.9-1-3.88-1.64-5.91h-8.73c-.63,2.02-1.18,4.01-1.64,5.91l-.11.46c-.61,2.5-1.36,5.6.77,7.48.49.43,1.07.74,1.64,1.04.87.46,1.76.94,2.36,1.86.62.95.6,2.24.58,3.38,0,.22,0,.43,0,.64,0,1.63-.02,6.41-.05,7.32v.31c-.02.46-.04.94-.14,1.4-.21.97-1.2,1.69-1.93,2.14-.74.46-2.21,1.01-2.63,1.16v.21Z"/>
          </g>
        </g>
        <g>
          <g>
            <path class="st103" d="M60.96,127.36h10v4.13h-14.74v-2.39c0-7.82,10.5-10.43,10.5-16.26v-.83c0-1.56-1.16-2.54-2.86-2.54-1.85,0-3.01,1.23-3.01,3.48v1.3h-4.45v-1.16c0-4.6,3.11-7.75,7.46-7.75s7.32,2.82,7.32,6.77v.98c0,7.75-9.78,9.6-10.21,14.27Z"/>
            <path class="st103" d="M73.51,124.75v-12.1c0-4.35,3.04-7.32,7.53-7.32s7.57,2.97,7.57,7.32v12.1c0,4.31-3.08,7.24-7.53,7.24s-7.57-2.93-7.57-7.24ZM84.15,124.79v-12.21c0-1.96-1.05-3.11-3.08-3.11s-3.11,1.16-3.11,3.11v12.21c0,1.92,1.05,3.08,3.08,3.08s3.11-1.16,3.11-3.08Z"/>
            <path class="st103" d="M95.74,127.36h10v4.13h-14.74v-2.39c0-7.82,10.5-10.43,10.5-16.26v-.83c0-1.56-1.16-2.54-2.86-2.54-1.85,0-3.01,1.23-3.01,3.48v1.3h-4.45v-1.16c0-4.6,3.11-7.75,7.46-7.75s7.32,2.82,7.32,6.77v.98c0,7.75-9.78,9.6-10.21,14.27Z"/>
            <path class="st103" d="M122.77,122.11v2.97c0,4.09-3.08,6.92-7.35,6.92s-7.35-2.82-7.35-6.92v-2.5h4.45v2.75c0,1.67,1.05,2.64,2.9,2.64s2.9-.98,2.9-2.64v-3.48c0-1.52-.83-2.43-2.43-2.43h-7.06v-13.58h13.04v4.13h-8.62v5.43h2.68c4.06,0,6.85,2.75,6.85,6.7Z"/>
          </g>
          <g>
            <path class="st109" d="M62.93,104.41c-4.35,0-7.46,3.15-7.46,7.75v1.16h4.45v-1.3c0-2.25,1.16-3.48,3.01-3.48,1.7,0,2.86.98,2.86,2.54v.83c0,5.83-10.5,8.44-10.5,16.26v2.39h14.74v-4.13h-10c.43-4.67,10.21-6.52,10.21-14.27v-.98c0-3.95-3.11-6.77-7.32-6.77Z"/>
            <path class="st108" d="M70.19,130.72h-15.07v-2.56c0-4.27,3.13-7.06,5.88-9.52,2.38-2.12,4.62-4.12,4.62-6.74v-.83c0-1.44-1.06-2.37-2.7-2.37-1.81,0-2.84,1.21-2.84,3.31v1.47h-4.79v-1.32c0-4.66,3.14-7.92,7.63-7.92s7.48,2.92,7.48,6.94v.98c0,4.52-3.23,7.04-6.09,9.27-2.05,1.6-3.83,3-4.11,4.83h9.97v4.46ZM55.45,130.39h14.41v-3.8h-10.01l.02-.18c.19-2.07,2.17-3.61,4.25-5.24,2.79-2.18,5.96-4.66,5.96-9.01v-.98c0-3.83-3.01-6.61-7.15-6.61s-7.3,3.12-7.3,7.58v.99h4.12v-1.14c0-2.28,1.19-3.64,3.17-3.64,1.81,0,3.03,1.09,3.03,2.7v.83c0,2.78-2.3,4.82-4.73,6.99-2.84,2.53-5.77,5.15-5.77,9.27v2.22Z"/>
          </g>
          <g>
            <path class="st110" d="M80.11,104.41c-4.49,0-7.53,2.97-7.53,7.32v12.1c0,4.31,3.08,7.24,7.57,7.24s7.53-2.93,7.53-7.24v-12.1c0-4.35-3.08-7.32-7.57-7.32ZM83.23,123.86c0,1.92-1.05,3.08-3.11,3.08s-3.08-1.16-3.08-3.08v-12.21c0-1.96,1.05-3.11,3.11-3.11s3.08,1.16,3.08,3.11v12.21Z"/>
            <path class="st114" d="M80.15,131.23c-4.55,0-7.74-3.05-7.74-7.41v-12.1c0-4.47,3.09-7.48,7.7-7.48s7.74,3.08,7.74,7.48v12.1c0,4.36-3.17,7.41-7.7,7.41ZM80.11,104.58c-4.41,0-7.37,2.87-7.37,7.15v12.1c0,4.23,2.97,7.08,7.4,7.08s7.37-2.84,7.37-7.08v-12.1c0-4.28-2.97-7.15-7.4-7.15ZM80.11,127.1c-2.06,0-3.24-1.18-3.24-3.24v-12.21c0-2.12,1.17-3.28,3.28-3.28s3.24,1.2,3.24,3.28v12.21c0,2.06-1.2,3.24-3.28,3.24ZM80.15,108.7c-1.93,0-2.95,1.02-2.95,2.95v12.21c0,1.88,1.03,2.91,2.91,2.91s2.95-1.03,2.95-2.91v-12.21c0-1.9-1.03-2.95-2.91-2.95Z"/>
          </g>
          <g>
            <path class="st113" d="M97.7,104.41c-4.35,0-7.46,3.15-7.46,7.75v1.16h4.45v-1.3c0-2.25,1.16-3.48,3.01-3.48,1.7,0,2.86.98,2.86,2.54v.83c0,5.83-10.5,8.44-10.5,16.26v2.39h14.74v-4.13h-10c.43-4.67,10.21-6.52,10.21-14.27v-.98c0-3.95-3.11-6.77-7.32-6.77Z"/>
            <path class="st111" d="M104.97,130.72h-15.07v-2.56c0-4.27,3.13-7.06,5.88-9.52,2.38-2.12,4.62-4.12,4.62-6.74v-.83c0-1.44-1.06-2.37-2.7-2.37-1.81,0-2.84,1.21-2.84,3.31v1.47h-4.79v-1.32c0-4.66,3.14-7.92,7.63-7.92s7.48,2.92,7.48,6.94v.98c0,4.52-3.23,7.04-6.09,9.27-2.05,1.6-3.83,3-4.11,4.83h9.97v4.46ZM90.23,130.39h14.41v-3.8h-10.01l.02-.18c.19-2.07,2.17-3.61,4.25-5.24,2.79-2.18,5.96-4.66,5.96-9.01v-.98c0-3.83-3.01-6.61-7.15-6.61s-7.29,3.12-7.29,7.58v.99h4.12v-1.14c0-2.28,1.19-3.64,3.17-3.64,1.81,0,3.03,1.09,3.03,2.7v.83c0,2.78-2.3,4.82-4.73,6.99-2.84,2.53-5.77,5.15-5.77,9.27v2.22Z"/>
          </g>
          <g>
            <path class="st115" d="M115,114.48h-2.68v-5.43h8.62v-4.13h-13.04v13.58h7.06c1.59,0,2.43.91,2.43,2.43v3.48c0,1.67-1.05,2.64-2.9,2.64s-2.9-.98-2.9-2.64v-2.75h-4.45v2.5c0,4.09,3.08,6.92,7.35,6.92s7.35-2.83,7.35-6.92v-2.97c0-3.95-2.79-6.7-6.85-6.7Z"/>
            <path class="st112" d="M114.49,131.23c-4.43,0-7.52-2.91-7.52-7.08v-2.66h4.79v2.92c0,1.57,1,2.48,2.73,2.48s2.73-.9,2.73-2.48v-3.48c0-1.46-.8-2.26-2.26-2.26h-7.23v-13.91h13.37v4.46h-8.62v5.1h2.51c4.13,0,7.01,2.82,7.01,6.87v2.97c0,4.17-3.09,7.08-7.52,7.08ZM107.3,121.82v2.33c0,3.98,2.95,6.75,7.19,6.75s7.19-2.78,7.19-6.75v-2.97c0-3.85-2.75-6.53-6.68-6.53h-2.85v-5.76h8.62v-3.8h-12.71v13.25h6.9c1.65,0,2.59.94,2.59,2.59v3.48c0,1.76-1.15,2.81-3.06,2.81s-3.06-1.05-3.06-2.81v-2.59h-4.12Z"/>
          </g>
        </g>
      </g>
    </g>
  </g>
</svg>