<?xml version="1.0" encoding="UTF-8"?>
<svg id="Layer_1" xmlns="http://www.w3.org/2000/svg" version="1.1" viewBox="0 0 977.85 64.12">
  <!-- Generator: Adobe Illustrator 30.6.0, SVG Export Plug-In . SVG Version: 2.1.4 Build 109)  -->
  <defs>
    <style>
      .st0 {
        fill: #a1c910;
      }

      .st1 {
        fill: #231f20;
      }

      .st2 {
        fill: #e32726;
      }
    </style>
  </defs>
  <g>
    <path class="st2" d="M969.09,33.48c-1.56-.13-2.78-.32-4.34-.28-.94.02-1.61.14-2.47.57-1.03.51-1.43,1.61-1.5,2.86-.05.92-.02,1.86-.04,2.78-.06,2.85-.12,5.7-.18,8.55-.05,2.18-.46,5.18.81,7.02.5.72,1.23,1.17,1.96,1.51,1.41.65,2.26.98,3.77.96.97-.01,1.99-.2,2.86-.71-.33-.63-.69-1.26-.93-1.93-.16-.44-.32-.88-.47-1.33-.12-.34-.3-.84-.49-.98-.3-.21-.89-.29-1.21-.34-.11-.01-.21-.03-.32-.06-.53-.11-1.05.3-1.18.9-.05.25-.1.46-.11.5-.16.55-.38,1.08-.63,1.58-.03.05-.08.13-.11.18-.23.35-.49.89-.95.82-.33-.05-.58-.41-.55-.78.02-.23.11-.45.2-.66.06-.15.53-1.23.89-2.1.23-.57.06-1.24-.38-1.63-.83-.73-1.26-1.73-1.43-2.92-.11-.78-.19-1.58-.2-2.37-.01-.74-.11-1.68.04-2.41.18-.85.66-1.43,1.35-1.74.32-.15.67-.2,1.01-.28,1.31-.3,2.81-.26,4.15-.16,1.33.1,2.35.75,2.5,2.37.12,1.31.12,2.84-.07,4.14-.18,1.2-.52,2.65-1.34,3.5-.15.15-.32.41-.32.66,0,.23.13.62.21.83.38.9.94,1.86,1.2,2.82.05.19.11.37.17.55.7-.81,1.18-1.9,1.45-3.02.34-1.45.37-2.98.4-4.48,0-2.67.1-5.35.16-8.02,0-.48.02-.96.03-1.44.03-1.59.05-3.45-1.12-4.56-.76-.72-1.82-.8-2.8-.88ZM970.78,36.66c-.03.83-.24,1.7-.68,2.36-.86,1.29-2.51,1.19-3.76,1.27-.61.04-1.25.11-1.86,0-.73-.12-1.29-.84-1.58-1.61-.34-.92-.38-2.15-.23-3.15.18-1.2,1.33-1.05,1.31-.08,0,.09,0,.16-.02.24-.03.28.16.52.39.52.14,0,.28,0,.42,0,.9.02,1.79.08,2.69.11.52.02,1.1.02,1.6-.15.1-.03.2-.08.27-.16.16-.19.1-.3.09-.53-.01-.21.02-.39.11-.58.2-.39.59-.59.91-.25.05.05.08.1.12.16.13.2.19.52.21.84.02.35,0,.72,0,.99Z"/>
    <path class="st2" d="M968.59,37.48c-.46.02-.93.06-1.39.08-.32.01-.64.02-.97.04-.51.03-1.02.13-1.53.11-.07,0-.77,0-.77-.04.03.16.07.31.13.47.18.39.49.68.9.8.77.23,1.63.16,2.41.09.33-.03.66-.06.97-.2.29-.13.57-.32.75-.59.04-.06.11-.15.16-.25.09-.17.17-.36.12-.49-.06-.13-.66-.02-.79-.02Z"/>
    <path class="st2" d="M969.84,46.68c.02-.13.03-.26.05-.38.03-.34-.21-.65-.52-.63-1.41.08-2.81.28-4.22.33-.37.01-.74.04-1.1.02-.17,0-.54-.11-.65.09-.06.11.06.62.08.75.03.18.02.45.19.54.08.04.16.01.24,0,.1-.02.19-.03.29-.04.19-.02.38-.03.57-.02.32,0,.65.03.97.03.51,0,1.01,0,1.46-.09.74-.13,1.49-.1,2.23,0,.42.06.36-.23.41-.59Z"/>
    <path class="st2" d="M977.33,54.61c0-1.71.19-1.71.19-3.42s-.27-1.71-.27-3.42.35-1.71.35-3.42.2-1.71.2-3.42-.57-1.71-.57-3.42.63-1.71.63-3.42-.65-1.71-.65-3.42c0-1.02-.28-1.75-.76-2.57-.49-.85-.99-1.46-1.84-1.95-.82-.47-1.59-.83-2.61-.83-1.71,0-1.71-.4-3.42-.4s-1.71.6-3.42.6-1.71-.25-3.42-.25-1.71-.21-3.42-.21-1.71-.39-3.42-.39-1.71.41-3.42.41-1.71-.08-3.42-.08-1.71.24-3.42.24c-1.02,0-1.8.4-2.62.88-.85.49-1.57.99-2.06,1.84-.47.82-.62,1.69-.62,2.71,0,1.71-.51,1.71-.51,3.42s.52,1.71.52,3.42-.54,1.71-.54,3.42.64,1.71.64,3.42-.52,1.71-.52,3.42.41,1.71.41,3.42-.26,1.71-.26,3.42-.17,1.71-.17,3.42c0,1.02.17,2.12.65,2.94.49.85,1.52,1.29,2.37,1.78.82.47,1.71.65,2.72.65,1.71,0,1.71.2,3.42.2s1.71-.15,3.42-.15,1.71.05,3.42.05,1.71.2,3.42.2,1.71.32,3.42.32,1.71-.87,3.42-.87,1.71.49,3.42.49,1.71.23,3.42.23c1.02,0,2.05-.4,2.87-.87.85-.49,1.59-1.26,2.08-2.11.47-.82.92-1.84.92-2.86,0-1.71-.52-1.71-.52-3.42ZM956.97,37.45c-.08.02-.16.01-.24.01-.83-.03-1.64.24-2.46.32-1.24.12-2.5-.2-3.73-.01-.83.13-.64,1.22-.45,1.79.18.55.55,1.14,1.04,1.46.21.13.38.13.61.18.33.08.66.26.96.42.5.27.93.65,1.36,1.03,1.01.89,1.34,2.33,1.34,3.68,0,1.03-.21,2.02-.2,3.05,0-.06,0-.12-.02-.19.08.7-.18,1.25-.34,1.92-.25,1.04-.69,2.03-1.15,2.99-.22.47-.51.95-.68,1.44-.07.2-.07.36-.2.54-.15.2-.35.36-.53.53-.56.57-.92,1.36-1.61,1.75-.46.26-1.01.4-1.52.27-.27-.06-.55-.23-.61-.5-.07-.32.19-.61.41-.84.56-.58,1.06-1.22,1.49-1.9.2-.31.38-.62.58-.93.48-.71,1.09-1.35,1.5-2.11.36-.67.65-1.47.82-2.21.05-.22.1-.43.14-.65.19-.99.23-2.03.2-3.03-.02-1.05-.17-2.21-.94-2.92-.47-.44-1.51-1.03-2.1-.51-.22.2-.35.48-.48.75l-.54,1.19c-.11.24-.22.48-.32.72-.43,1-.74,2.05-1.11,3.07-.42,1.14-.88,2.26-1.4,3.34-.55,1.15-1.2,2.77-2.24,3.55-.18.13-.38.25-.6.23-.82-.06-.73-1.18-.46-1.67.32-.59.64-1.19.91-1.8.15-.33.22-.69.35-1.03.29-.77.99-1.36,1.39-2.09.6-1.11.85-2.34,1.3-3.5.28-.72.62-1.42.98-2.1.26-.49.79-.92.61-1.51-.18-.6-.55-1.14-.83-1.69-.34-.67-.28-1.14-.22-1.87.02-.21.12-.49.11-.69,0-.48-.58-.34-.91-.35-.4-.01-.79-.03-1.19-.04-.81-.03-1.61-.06-2.42-.09-.32-.01-.64-.02-.96-.1-.49-.12-.77-.5-.82-.99-.05-.42.03-.87.31-1.19.18-.21.52-.3.78-.2.06.02.12.06.16.11.05.08.04.19.12.23.13.06.24.16.33.28.04.06.08.13.14.17.09.06.19.03.29.05.08.01.13.05.2.08.2.07.45.05.66.05.32,0,3.65,0,3.64.11.02-.21.05-.42.09-.63.28-1.62.87-3.34,1.79-4.63.26-.37.68-.65,1.09-.42.33.18.49.6.41,1-.05.24-.14.47-.23.69,0-.02.02-.04.02-.05-.02.06-.05.12-.07.19.02-.04.03-.09.05-.13-.26.66-.56,1.29-.78,1.96-.1.31-.69,1.79-.4,2.01.07.05.16.06.25.07,1.65.11,3.32.08,4.97-.12.36-.04.73-.09,1.09-.09.4,0,.64.47.64.87,0,.27-.12.59-.38.65ZM974.43,48.18c-.07.99-.23,1.94-.36,2.92-.14.99-.23,1.98-.48,2.95-.12.46-.26.91-.46,1.34-.19.41-.43.8-.7,1.16-.46.62-1.05,1.13-1.68,1.52-.34.21-.7.38-1.06.53-.33.14-.68.23-1.02.33-.38.11-.77.18-1.16.23-.35.05-.36.08-.72.07-.91,0-1.82-.12-2.69-.39-.86-.27-1.41-.65-2.19-1.15-.73-.47-1.4-1.09-1.89-1.88-.45-.73-.68-1.61-.79-2.49-.12-.93-.12-1.86-.12-2.8v-3.2c.01-1.07-.02-2.14-.03-3.2,0-.54-.02-1.07-.05-1.61-.03-.53-.07-1.07-.07-1.6-.02-.21-.04-.42-.05-.62-.02-.2,0-.41,0-.61,0-.41,0-.83,0-1.24,0-1.33-.1-2.7.4-3.97.1-.22.19-.44.3-.65.12-.23.26-.44.42-.63.28-.35.63-.65.99-.89.75-.5,1.59-.73,2.45-.84.83-.12,1.39-.11,2.23-.11.88,0,1.42.06,2.29.14.48.04.95.11,1.42.19.15.03.3.05.45.09.2.04.39.08.58.18-.05-.02-.1-.05-.15-.07.31.11.62.23.93.35.67.28,1.32.61,1.87,1.14.58.55.96,1.31,1.13,2.14.1.5.14,1.03.16,1.54.03.53.05,1.06.07,1.6.03.8.06,1.59.08,2.39.07,2.39.09,4.79-.09,7.17Z"/>
    <path class="st2" d="M963.92,44.68c.2,0,.39-.02.59-.03.35,0,3.27.03,4.69-.02.43-.02.76-.43.75-.92,0-.07,0-.14,0-.22-.02-.41-.05-.86-.39-1.11-.47-.36-1.4-.22-1.94-.18-.7.05-1.4.16-2.1.29-.82.16-1.7.43-2.05,1.37,0,0,0,0,0,0-.17.44.05.81.47.8Z"/>
    <path class="st2" d="M968.23,48.46c-1.36.11-3.77.01-4,.44-.11.2-.04.32,0,.42.12.25.32.49.52.66.34.3.76.48,1.16.6.7.22,1.4.38,2.11.09.34-.14.62-.43.83-.78.12-.19.21-.39.28-.6.03-.07.05-.14.08-.21.14-.39-.11-.7-.48-.64-.16.02-.39,0-.51.01Z"/>
  </g>
  <g>
    <g>
      <g>
        <path class="st1" d="M366.21,4.63c-.67-1.59-2.12-2.56-3.57-2.75-3.48-.47-11.99,0-11.99,0l-25.79,61.31h11.23c1.49,0,2.82-.91,3.37-2.29l4.38-10.97h27.36l4.41,10.97c.55,1.38,1.89,2.28,3.37,2.28h11.86s-18.47-43.92-24.63-58.56ZM348.05,39.38l9.43-23.61,9.48,23.61h-18.91Z"/>
        <path class="st0" d="M244.16,45.12c-2.54,3.32-10,7.02-16.29,7.23-13.1.44-24.03-7.42-24.03-19.82s11.32-20.32,24.29-20.32c6.3,0,12.01,2.06,16.23,5.41l-.53-12.41c-5.3-2.71-10.93-4.27-17.51-4.27-20.92,0-35.93,12.4-35.93,31.59s15.58,31.59,35.93,31.59c6.16,0,13.78-1.66,17.44-4.12,1.25-.84,1.85-2.16,1.86-3.66.03-4.84-1.47-11.22-1.47-11.22Z"/>
        <path class="st1" d="M312.3,1.88c-3.22-.26-10.61,0-10.61,0v23.71h-29.57V4.6c0-1.5-1.22-2.61-2.73-2.73-3.22-.26-10.61,0-10.61,0v61.31h13.34v-26.63h29.57v26.63h13.34V4.6c0-1.5-1.22-2.61-2.73-2.73Z"/>
      </g>
      <g>
        <path class="st0" d="M53.77,45.12c-2.54,3.32-10,7.02-16.29,7.23-13.1.44-24.03-7.42-24.03-19.82s11.32-20.32,24.29-20.32c6.3,0,12.01,2.06,16.23,5.41l-.53-12.41c-5.3-2.71-10.93-4.27-17.51-4.27C15.02.94,0,13.35,0,32.53s15.58,31.59,35.93,31.59c6.16,0,13.78-1.66,17.44-4.12,1.25-.84,1.85-2.16,1.86-3.66.03-4.84-1.47-11.22-1.47-11.22Z"/>
        <path class="st1" d="M121.91,1.88c-3.22-.26-10.61,0-10.61,0v23.71h-29.57V4.6c0-1.5-1.22-2.61-2.73-2.73-3.22-.26-10.61,0-10.61,0v61.31h13.34v-26.63h29.57v26.63h13.34V4.6c0-1.5-1.22-2.61-2.73-2.73Z"/>
        <path class="st1" d="M155.02,63.19h-13.34V1.88s7.4-.26,10.61,0c1.5.12,2.73,1.22,2.73,2.73v58.59Z"/>
      </g>
    </g>
    <g>
      <g>
        <path class="st1" d="M516.49,4.63c-.67-1.59-2.12-2.56-3.57-2.75-3.48-.47-11.99,0-11.99,0l-25.79,61.31h11.23c1.49,0,2.82-.91,3.37-2.29l4.38-10.97h27.36l4.41,10.97c.55,1.38,1.89,2.28,3.37,2.28h11.86s-18.47-43.92-24.63-58.56ZM498.33,39.38l9.43-23.61,9.48,23.61h-18.91Z"/>
        <path class="st0" d="M444.72,63.96c-8.86-.11-18.72-3.63-22.97-5.89-2.08-1.11-2.46-2.65-2.37-4.43.14-2.79,2.17-8.29,2.17-8.29,2.72,1.99,14.29,7.46,24.93,7.33,3.96-.05,7.74-1.04,9.78-2.72,2.4-1.99,2.94-5.74,1.17-8.2-1.35-1.88-4.15-2.77-7.67-3.61-.59-.14-1.18-.28-1.79-.42-5.97-1.38-17.79-3.59-23.14-8.6-5.28-4.94-6.48-12.97-2.85-19.1,2.58-4.35,8.53-8.18,14.66-9.3,11.2-2.04,20.58.39,29.38,4.98,1.57.82,2.2,2.46,1.99,4.16-.29,2.41-2.09,8.01-2.09,8.01-6.84-3.7-15.45-7.93-25.83-6.22-3.07.51-5.32,1.78-6.55,3.77-1.06,1.71-.67,4.08.82,5.48,3.01,2.82,11.35,4.68,16.38,5.84.63.15,1.25.29,1.86.43,4.98,1.18,11.91,3.09,15.59,8.19,5.19,7.21,3.8,17.37-3.17,23.13-4.18,3.46-11.58,5.4-18.4,5.47-.3,0-1.6,0-1.9-.01Z"/>
        <path class="st1" d="M609.41,63.19V4.6c0-1.51-1.22-2.61-2.73-2.73-3.22-.26-9.81,0-9.81,0v42.28s-24.41-30.68-32.55-40.91c-.69-.87-1.74-1.28-2.84-1.37-2.89-.23-10.4,0-10.4,0v61.31h10.05c1.52,0,2.74-1.24,2.73-2.75l-.42-39.76,33.44,42.51h12.54Z"/>
      </g>
      <g>
        <path class="st0" d="M698.68,45.12c-2.54,3.32-10,7.02-16.29,7.23-13.1.44-24.03-7.42-24.03-19.82s11.32-20.32,24.29-20.32c6.3,0,12.01,2.06,16.23,5.41l-.53-12.41c-5.3-2.71-10.93-4.27-17.51-4.27-20.92,0-35.93,12.4-35.93,31.59s15.58,31.59,35.93,31.59c6.16,0,13.78-1.66,17.44-4.12,1.25-.84,1.85-2.16,1.86-3.66.03-4.84-1.47-11.22-1.47-11.22Z"/>
        <path class="st1" d="M766.82,1.88c-3.21-.26-10.61,0-10.61,0v23.71h-29.57V4.6c0-1.5-1.22-2.61-2.73-2.73-3.21-.26-10.61,0-10.61,0v61.31h13.34v-26.63h29.57v26.63h13.34V4.6c0-1.5-1.22-2.61-2.73-2.73Z"/>
        <path class="st1" d="M897.7,63.19V4.6c0-1.51-1.22-2.61-2.73-2.73-3.22-.26-9.81,0-9.81,0v42.28s-24.41-30.69-32.55-40.91c-.69-.87-1.74-1.28-2.84-1.37-2.89-.23-10.4,0-10.4,0v61.31h10.05c1.52,0,2.74-1.24,2.73-2.75l-.42-39.76,33.44,42.51h12.54Z"/>
        <path class="st1" d="M826.38,52.22h-27.39v-15.51h20.06c1.86,0,2.57-1.23,2.73-2.73.22-2.14,0-7.69,0-7.69h-22.78v-13.55h23.61c1.86,0,2.57-1.23,2.73-2.73.22-2.14,0-8.15,0-8.15h-39.67v61.31h38c1.86,0,2.57-1.23,2.73-2.73.22-2.14,0-8.25,0-8.25Z"/>
      </g>
    </g>
  </g>
</svg>