<?xml version="1.0" encoding="UTF-8"?>
<svg id="Layer_1" xmlns="http://www.w3.org/2000/svg" version="1.1" viewBox="0 0 316.6 41.22">
  <defs>
    <style>
      .st0 {
        fill: #8cc03f;
      }

      .st1, .st2 {
        fill: none;
        stroke: #8cc03f;
        stroke-miterlimit: 10;
      }

      .st2 {
        stroke-width: .75px;
      }
    </style>
  </defs>

  <!-- Distant high-altitude ridgeline (faintest, thinnest, tallest peaks) -->
  <path class="st2" d="M-2,22 L14,13.5 L30,4 L45,10 L60,16 L77.5,9 L95,2 L112.5,8.5 L130,15 L147.5,9 L165,3 L182.5,8.5 L200,14 L217.5,7.5 L235,1 L252.5,7 L270,13 L285,9 L300,5 L309,7.5 L318,10"/>

  <!-- Mid-distance ridgeline -->
  <path class="st1" d="M-2,30 L10,21 L22,12 L34,17 L46,22 L56,14 L66,6 L79,13 L92,20 L105,15 L118,10 L132,17 L146,24 L159,16.5 L172,9 L185,15 L198,21 L210,14.5 L222,8 L235,15.5 L248,23 L260,17 L272,11 L286,16.5 L300,22 L309,18.5 L318,15"/>

  <!-- Foreground high-mountain range (solid, closest layer) -->
  <path class="st0" d="M0,33 L9,28.5 L18,24 L26,27 L34,30 L43,22 L52,14 L61,20 L70,26 L79,23 L88,20 L98,25 L108,30 L118,26 L128,22 L139,27 L150,32 L159,28.5 L168,25 L178,29 L188,33 L198,27 L208,21 L219,25 L230,29 L241,24 L252,19 L262,24.5 L272,30 L282,27.5 L292,25 L304.3,28.5 L316.6,32 L316.6,41.22 L0,41.22 Z"/>

  <!-- Peak accent ticks (subtle summit marks on the two tallest high-altitude peaks) -->
  <path class="st2" d="M95,2 L93.5,5.5 M95,2 L96.5,5.5"/>
  <path class="st2" d="M235,1 L233.5,4.5 M235,1 L236.5,4.5"/>
</svg>
