<?xml version="1.0" encoding="UTF-8"?>
<svg id="Layer_1" xmlns="http://www.w3.org/2000/svg" version="1.1" viewBox="0 0 316.6 41.22">
  <!-- Generator: Adobe Illustrator 30.6.0, SVG Export Plug-In . SVG Version: 2.1.4 Build 109)  -->
  <defs>
    <style>
      .st0 {
        fill: #8cc03f;
      }

      .st1, .st2 {
        fill: none;
        stroke: #8cc03f;
        stroke-miterlimit: 10;
      }

      .st2 {
        stroke-width: .75px;
      }
    </style>
  </defs>
  <path class="st0" d="M0,31.62c5.23,0,7.24-3.16,9.18-4.26,3.92-2.21,6.29-.3,13.97,4.14,7.34,4.25,11.65-3.58,21.66,1.59,6.02,2.95,11.72,6.98,18.55,7.55,11.26.94,12.84-1.51,17.79-3.53-12.89-3.39-17.98-15.23-26.81-10.97-3.16,1.37-6.35,1.38-9.34-.35-4.23-2.36-7.42-6.54-12.28-7.68-3.68-.76-6.2-3.42-9.18-5.45-6.75-4.24-14.74,9.68-23.56,9.68v9.28Z"/>
  <path class="st0" d="M316.6,31.62c-4.2,0-6.86,1.96-10.07,1.96-2.69,0-4.63-.83-8.1-1.71,4.93-1.15,10.12-4.65,11.91-6.26,1.61-1.45,4.42-3.27,6.25-3.27v9.28Z"/>
  <path class="st0" d="M80.42,26.16c.98.56,2.03.97,3.3,1.17,3.14.51,6.78.96,10.3,2.69,2.7-2.6,4.13-4.22,6.94-5.9,9.99-5.97,17.13-.44,26.81,3.09,12.52,4.56,19.68-5.76,28.16-12.52-3.32.46-8.44-.08-11.99-3.11-3.96-3.04-8.82-7.18-13.94-4.13-3.89,2.31-6.83,5.86-10.47,8.53-4.96,3.35-12.68-2.07-17.3,1.2-4.62,3.27-8.89,5.52-13.85,6.79-4.61,1.18-5.52,1.37-7.96,2.19"/>
  <path class="st0" d="M268.72,20.98c-2.5.1-5.17,1.09-8.36,3.44-5.95,3.89-12.94,7.86-17.76,8.8-4.83.93-6.72,1.43-9.78,3.78-3.08,2.36-7.91,3.38-12.38,3.38s-7.36-1.59-9.34-3.48c-1.01-.96-2.08-1.86-3.18-2.71,10.41-2.4,16.07-11.6,21.99-11.82,3.14-.12,5.27,2.8,8.31,3.13,5.89.63,11.49-4.5,16.18-7.48,3.41-2.17,8.56-3.15,14.32,2.96"/>
  <path class="st2" d="M94.01,30.03c-3.52-1.73-7.16-2.18-10.3-2.69s-4.99-2.19-7.64-4.69c-3.38-2.93-11.33-2.45-16.85-6.28-13.55-11.35-13.8-3.97-19.59-8.35-3.9-2.96-7.97-9.2-13.5-7.28-6.53,2.87-12.68,9.73-17.52,11.95C5.51,14.12,3.36,13.83,0,13.83"/>
  <path class="st2" d="M81.16,37.1c-12.89-3.39-17.98-15.23-26.81-10.97-3.16,1.37-6.35,1.38-9.34-.35-4.23-2.36-7.42-6.54-12.28-7.68-3.68-.76-6.2-3.42-9.18-5.45C16.81,8.41,8.82,22.34,0,22.34"/>
  <path class="st1" d="M268.72,20.98c-5.76-6.11-10.91-5.12-14.32-2.95-4.69,2.98-10.29,8.11-16.18,7.48-3.04-.33-5.17-3.25-8.31-3.13-5.93.22-11.58,9.42-22,11.82"/>
  <path class="st2" d="M155.92,14.69c-3.32.46-8.44-.08-11.99-3.11-3.96-3.04-8.82-7.18-13.94-4.13-3.89,2.3-6.83,5.86-10.46,8.53-4.96,3.35-12.68-2.07-17.3,1.2-4.62,3.27-8.89,5.52-13.85,6.79-4.62,1.19-5.53,1.37-7.97,2.19"/>
  <path class="st1" d="M316.6,22.34c-1.84,0-4.64,1.81-6.25,3.27-1.79,1.61-6.98,5.11-11.91,6.26"/>
  <path class="st2" d="M144.48,11.99c.26-.31,8.33-7.11,11.9-9.37,10.19-6.47,14.95,6.55,23.42,9.26,2.24.71,4.5.21,6.77.62,5.47.99,13.44,8.19,15.89,9.82,2.44,1.63,7.4,2.43,10.84,1.73,6.67-1.36,12.04-7.62,19.31-8.06,2.81-.17,3.87.01,6.54-.23,5.67-.52,8.64-9.77,17.6-10.02,11.44-.32,13.86,8.35,21.41,8.93.84.06,4.71-.15,5.55-.1,10.51.66,11.6,9.72,23.22,3.7,3.11-1.61,6.03-4.42,9.69-4.42"/>
  <path class="st2" d="M316.6,31.62c-4.2,0-6.86,1.96-10.07,1.96s-5.37-1.19-10.33-2.23c-4.97-1.04-8.89-2.07-13.32-4.58-8.49-4.72-13.43-9.05-22.51-2.35-5.95,3.89-12.94,7.86-17.77,8.8-4.82.93-6.72,1.43-9.78,3.78-3.08,2.36-7.91,3.38-12.38,3.38s-7.36-1.59-9.34-3.48c-7.39-7.05-17.93-10.71-22.04-12.9-5.42-2.89-10.61-6.77-15.68-10.15-5.98-4-9.32-4.97-15.56-.57-9.36,6.6-16.61,18.85-30.05,13.95-9.68-3.53-16.82-9.05-26.82-3.09-2.82,1.68-4.24,3.3-6.94,5.9-2.9,2.79-7.89,5.05-12.85,7.08-4.95,2.02-6.54,4.48-17.79,3.53-6.83-.57-12.53-4.6-18.55-7.55-10.01-5.17-14.33,2.66-21.66-1.59-7.67-4.44-10.04-6.36-13.97-4.14-1.94,1.09-3.95,4.26-9.18,4.26"/>
</svg>